<svg id="Capa_1" data-name="Capa 1" xmlns="http://www.w3.org/2000/svg" viewBox="0 0 220 41"><defs><style>.cls-1{fill:#cecece;}</style></defs><g id="_4aacb9ff-6f60-49aa-8494-09fb5c3e053e" data-name="4aacb9ff-6f60-49aa-8494-09fb5c3e053e"><g id="_436664e4-1ed4-4ef5-8fcb-bef6e40e4226" data-name="436664e4-1ed4-4ef5-8fcb-bef6e40e4226"><path class="cls-1" d="M219.15,31.25h-29.5v-1h29.5Zm-14.7-5.6,2.8-2.7,1.1,1.1-3,2.5c-.2.3-.4.8-.6,1.1h-2.2A3.68,3.68,0,0,1,204.45,25.65Zm-9.4-17c-.1,0-2.3.6-2.3.6a14.55,14.55,0,0,0-1.5.7c-.5.3-1,.8-1,1.1l2,.5a7.65,7.65,0,0,1,.9-.9l.5-.2,1.6-1.7c.1-.1.1-.2-.25-.1Zm13.5,5.4a44.24,44.24,0,0,1-3.4-4.2A12.14,12.14,0,0,0,206,4a15.65,15.65,0,0,0-1.4-2.1c-.2-.3-1.1-1.3-1.5-1.3-.1,0-.2,0-.2.1l.1,1.1c-1.3.8-2.8,1.8-4.1,2.8a4,4,0,0,0,.1,1.2,2.44,2.44,0,0,0,.7.4,27.3,27.3,0,0,1,2.7-.5l-1.7,2.5-2,1.4-2.4-.8c-.2,0-.3,0-.4.1l-1.8,1.9a.52.52,0,0,0-.2.4l-.1,2.1V14a3.66,3.66,0,0,0,.7,2.3l1.1-1.7a4.36,4.36,0,0,1-.5-1.2v-1.8l1.1-.8,3,2.1a15.42,15.42,0,0,0,1.6,2.4,27.94,27.94,0,0,0,4.3,3.1,13.19,13.19,0,0,0,.6,2.3l3.6,3.7-2.1,2.7a2.62,2.62,0,0,0-1.4,2.2h2.5l.3-1.4,3-3.3c.2-.2.2-.3.1-.5l-.8-2.8a5.23,5.23,0,0,0,1.3-3.1c0-2.7-2.7-3.4-3.6-4.15Zm4.5,4.4a12.71,12.71,0,0,0-.7-1.9s.1-.1.4,0a18.56,18.56,0,0,1,1.8,1.2c.8,1.1,1.3,5.9,1.3,7.6a8.66,8.66,0,0,1-2.4-1.5Z"/><path class="cls-1" d="M136.45,17.35c0-1.8-.6-3.2-2.1-3.2s-2.2,1.4-2.2,3.2v11.9H134v1.9h-10.1v-1.9h1.9V12.85h-1.9V11h7.9v3.1h.1a5.77,5.77,0,0,1,5.3-3.5,5.07,5.07,0,0,1,5.3,4.2,20.25,20.25,0,0,1,.3,3.3V29.3h2.4v1.9h-8.8l.1-13.9m-40.9,0c0-1.8-.6-3.2-2.1-3.2s-2.2,1.4-2.2,3.2V29.2h1.8v1.9H83V29.2h1.9V12.85H83V11h7.9v3.1H91a5.77,5.77,0,0,1,5.3-3.5,5.07,5.07,0,0,1,5.3,4.2,20.25,20.25,0,0,1,.3,3.3V29.3h2.4v1.9h-8.8Zm58.3-4.5V27.7a1.2,1.2,0,0,0,1.09,1.3.74.74,0,0,0,.21,0,4.43,4.43,0,0,0,1.2-.2v1.8a7.51,7.51,0,0,1-3.9.8c-3.1,0-5-1.5-5-4.8V12.85h-2.1v-1.3c2.4-1.9,5.2-4.1,7.4-5.9H154V11H157v1.8ZM27.75.55s4.9,4.9,7.1,7.4v1.9a15.65,15.65,0,0,0-10.4-4.1c-9.1,0-14.8,6.9-14.8,15.4s5.4,15.3,14.8,15.3A14.35,14.35,0,0,0,35,32v1.8c-2.8,3.9-8,6.4-14.5,6.4-11.6.1-19.6-8.3-19.6-19A19.34,19.34,0,0,1,20.33,2h.12a23.22,23.22,0,0,1,7.3,1.2Zm93.1,25.3a5.38,5.38,0,0,1-4.4,1.9c-1.8,0-4.7-1-4.8-5.7h10.8c0-.4.1-1.1.1-1.5,0-5.7-2.3-9.9-8.4-9.9s-9.2,4.7-9.2,10.5,3.1,10.4,9.2,10.4a8.27,8.27,0,0,0,7.9-4.7Zm-9.3-5.8c0-5.3.4-7.3,2.2-7.3s2.2,1.9,2.3,7.3Zm-89.1,1c0-6.2.6-8.9,2.7-8.9s2.7,2.7,2.7,8.9-.6,8.9-2.7,8.9-2.7-2.7-2.7-8.9m-7.5.1c0,6.1,3.7,11.1,10.2,11.1s10.2-5,10.2-11.1S31.65,10,25.15,10,15,15,15,21.1m34.6-3.8c0-1.8-.6-3.2-2.1-3.2s-2.2,1.4-2.2,3.2V29.2H47v1.9H37V29.2h1.9V12.85H37V11h7.9v3.1H45a5.77,5.77,0,0,1,5.3-3.5,5.07,5.07,0,0,1,5.3,4.2,20.25,20.25,0,0,1,.3,3.3V29.3h2.4v1.9h-8.8V17.35ZM72.45,5.6c0,1.8,1.6,3,3.9,3s3.9-1.2,3.9-3-1.6-3-3.9-3-3.9,1.3-3.9,3M67,12.8V27.7A1.2,1.2,0,0,0,68,29a.74.74,0,0,0,.21,0,4.43,4.43,0,0,0,1.2-.2v1.8a7.51,7.51,0,0,1-3.9.8c-3.1,0-5-1.5-5-4.8V12.85h-2.1v-1.3c2.4-1.9,5.2-4.1,7.4-5.9H67V11h2.5v1.8ZM185,29.3h2.5v1.9h-8.9V5.45h-2.2V3.55H185v25.8Zm-17.1-8.1a1.92,1.92,0,0,0-1.4-.4c-1.9,0-2.3,1.9-2.3,3.8s.6,3.4,2.2,3.4a1.77,1.77,0,0,0,1.5-.6Zm.2,7.6h0a6.21,6.21,0,0,1-5.3,2.8c-3.3,0-5.3-2.8-5.3-6.2,0-4,2.9-6.6,7.5-6.6a8.66,8.66,0,0,1,2.9.4V17.9a3.42,3.42,0,0,0-3.11-3.7,2.91,2.91,0,0,0-.59,0,5.62,5.62,0,0,0-4.6,2.4l-1.1-1.4a9.6,9.6,0,0,1,8-4.6c4.9,0,7.8,2.9,7.8,7.3V29.3h2.1v1.9h-8.2l-.1-2.4Zm-96.7,2.4V29.3h1.8V12.85h-1.8V11h8.2V29.3h1.9v1.9Z"/></g></g></svg>