<svg id="Capa_1" data-name="Capa 1" xmlns="http://www.w3.org/2000/svg" viewBox="0 0 505.01 271.16"><defs><style>.cls-1{fill:#cecece;fill-rule:evenodd;}</style></defs><g id="Capa_2" data-name="Capa 2"><g id="Capa_1-2" data-name="Capa 1-2"><path class="cls-1" d="M295.31,104.79A104.79,104.79,0,1,0,400.1,0h0A104.78,104.78,0,0,0,295.31,104.78Zm20.36,0A84.42,84.42,0,1,1,400.1,189.2h0a84.42,84.42,0,0,1-84.42-84.41Z"/><path class="cls-1" d="M386.43,192.52l-13.92-31.37c-.62-1.53-1.28-3.31-1.95-5.31s-1.36-4.23-2-6.7c-.57,2.33-1.18,4.48-1.85,6.48s-1.31,3.85-2,5.53l-14.06,31.37L335.14,227H317.05l51.33-110.18L419.67,227H401.48Z"/><path class="cls-1" d="M280.68,174.6c-.2-.81-.52-3.08-.94-6.79-.39-3.09-.74-5.66-1-7.68a54.88,54.88,0,0,1-1.85,7.24,61.31,61.31,0,0,1-3,7.38l-27.7,56.45-27.71-57.61a70.76,70.76,0,0,1-3-6.87c-.82-2.23-1.58-4.42-2.19-6.59a65.57,65.57,0,0,1-.55,7,75.85,75.85,0,0,1-1.41,7.63L200,226.92h-15.9l25-110.39,31.27,66.85c.47,1,1.21,2.81,2.19,5.26s2.18,5.51,3.59,9.11A112.84,112.84,0,0,1,251,186.18c.56-1.26,1-2.22,1.28-2.88l30.55-66.78,25.61,110.39h-16Z"/><path class="cls-1" d="M133,227V177.75L96.7,119.32h18.4l22.6,36.56c.55,1,1.2,2.16,2,3.69s1.61,3.16,2.44,4.92c.7-1.71,1.43-3.34,2.18-4.85a42.29,42.29,0,0,1,2.39-4.19l23.15-36.13h17.5L150.3,177.75V227Z"/><polygon class="cls-1" points="0 227 0 119.32 17.47 119.32 17.47 159.08 70.48 159.08 70.48 119.32 87.95 119.32 87.95 227 70.48 227 70.48 174.74 17.47 174.74 17.47 227 0 227"/><path class="cls-1" d="M310.21,104.91c1.21-7.38,3.19-15.72,7.12-22.16.48,1-.33.9,1.1,0,1.08.91-4.38,17.69-4.94,20.27-1.5,8.1-.53,13.12.4,21.09.3,2.56-.31,6.36-.53,9.08a158.88,158.88,0,0,1-2-21.88,81.31,81.31,0,0,0-.59,11.88c-1.15-1.63-.91-5.6-1-7.69A57.67,57.67,0,0,1,310.21,104.91Z"/><path class="cls-1" d="M421.8,8.52a114.2,114.2,0,0,0,12.47,3.38c-6.33-.31-14.08-3-21.35-3.17a24.44,24.44,0,0,0-5.2.08c-.84-3.25,3.7-2.09,6-2.11C416.81,6.67,418.91,7.47,421.8,8.52Z"/><path class="cls-1" d="M406.82,7.92c-1.62,1.75-.83.76-3.49-.35-3.46-1.45,4.71-5.16,5.09-2.17C408.52,6.17,407.28,7.39,406.82,7.92Z"/><path class="cls-1" d="M301,116.66c2.18-8.36,1.45.79,1.5,4.06.14,10.78.48-1.55,1-4.42a59.26,59.26,0,0,1-1.25,16.8c-.11-.59.28-7,.32-8-2.77,4.33-1.39-2.69-2.46-5-1.46,2-2.12,3.57-1.93-.68.16-3.36.68-12.56,2.84-14.7.29,4-1.06,10.18-.7,14.39Z"/><path class="cls-1" d="M356,18.57c7.85-2.3-1.35.87-3.12,1.61-14,5.85-15.44,5.8-.28-.44,4.89-2-10.35,3.36-10.4,3.37-1.42.49-9.79,3.81-3.31.47s15.17-6.51,22.1-8.87c3.48-1.18-1.71.2,2.3-1.45,3.16-1.31,3.64-1.24,7.34-1.54,0,0-17.16,3.92-4.18,1.95,8.9-1.34-2.78,1.76-5,2.57C360.89,16.43,349.62,20.62,356,18.57Z"/><path class="cls-1" d="M437.91,12.67c11.83,2.53,20.7,6,30.47,13.26-5-2.7-10.26-4.75-15.45-7C446.4,16.09,440,14.6,433.61,12,434.91,11.77,436.54,12.38,437.91,12.67Z"/><path class="cls-1" d="M495.54,61.2a136.4,136.4,0,0,1,5.77,14c-1.68-3.47-7.58-15.92-9.6-18.34C487.72,52.12,484,47,480,42.14c1.79-.68,4,3.21,4.91,4.42,1.9,2.45,4.27,6.6,6.44,8.28C493.18,56.22,494.51,59.16,495.54,61.2Z"/><path class="cls-1" d="M157.76,266.26a.37.37,0,0,1-.31.42h-.12a7.41,7.41,0,0,1-.94-.05,7.27,7.27,0,0,0-.93-.05,8.79,8.79,0,0,0-1,.05,7.86,7.86,0,0,1-.93.05c-.2,0-.43-.18-.43-.57,0-1.45,0-3.64.13-6.55s.14-5.1.14-6.56c0-.22,0-.33-.14-.33s-.18.07-.24.19q-.88,1.88-4.15,10c-.35,1-.86,2.35-1.52,3.91-.09.13-.5.19-1.25.19-1.09,0-1.69-.1-1.8-.29-.39-.93-1-2.23-1.68-3.91q-1.43-3.4-4.4-10.14a.47.47,0,0,0-.22-.24.46.46,0,0,0-.14.37q0,2.22.08,6.66t.08,6.66c0,.38-.14.57-.43.57a6.13,6.13,0,0,1-.9-.05,6.73,6.73,0,0,0-.89,0,7.35,7.35,0,0,0-.93,0,7.05,7.05,0,0,1-.92.05c-.21,0-.43-.11-.43-.32q0-1.92.18-5.73c.12-2.54.18-4.45.18-5.72s-.06-3.3-.18-6-.18-4.62-.18-5.94c0-.22.13-.34.4-.38a27.72,27.72,0,0,1,3.52-.31c.11,0,.27.23.48.7q4.19,9.16,7.18,16.35c.47,1.13.75,1.69.85,1.69s.36-.46.74-1.38q2.35-5.56,6.51-16.53c.18-.46.38-.69.59-.69.39,0,1,0,1.74.07s1.36.07,1.75.07a.37.37,0,0,1,.42.31v.1c0,1.33,0,3.32-.12,6s-.12,4.63-.12,5.94,0,3.16.14,5.68.14,4.41.14,5.67Zm18.15-8.82a1.66,1.66,0,0,1-1.1,1.7c-.5.18-4.05.52-10.67,1a3.82,3.82,0,0,0,1.67,2.58,4.86,4.86,0,0,0,3,1,8,8,0,0,0,5-1.74l.55-.45a.31.31,0,0,1,.19,0s.24.42.64,1.19a9.5,9.5,0,0,1,.61,1.24c0,.07-.1.2-.28.39a8.68,8.68,0,0,1-15.23-6.06,9.12,9.12,0,0,1,2.27-6.18,7.49,7.49,0,0,1,5.87-2.74,7,7,0,0,1,5.39,2.37,8,8,0,0,1,2.12,5.62Zm-4.09-1.05a3.49,3.49,0,0,0-1.13-2.53,3.54,3.54,0,0,0-2.54-1.1,3.81,3.81,0,0,0-2.81,1.27,4,4,0,0,0-1.24,2.85c0,.24.21.36.62.36a44.55,44.55,0,0,0,6.1-.51c.67-.09,1-.2,1-.34Zm23.05-13.7q0,2.22-.19,6.65c-.13,2.95-.19,5.16-.2,6.63q0,6.79.3,10.29v.22c0,.12-.15.19-.46.22a4.92,4.92,0,0,1-.94,0l-.67-.05a5,5,0,0,0-.77.05,6.3,6.3,0,0,1-.75.05c-.17,0-.26-.4-.29-1.21a3.35,3.35,0,0,0-.14-1.22,1,1,0,0,0-.26.23,7.23,7.23,0,0,1-10.2.84,6.74,6.74,0,0,1-.92-.93,9,9,0,0,1-2.12-6,9.13,9.13,0,0,1,2.14-6.17,7.32,7.32,0,0,1,5.84-2.61A5.88,5.88,0,0,1,189,251c.49.42,1,.85,1.47,1.29.09,0,.13-.11.13-.24v-7.3c0-.77-.05-1.34-.05-1.74s.09-.41.27-.41a13.46,13.46,0,0,0,1.89-.11,13.13,13.13,0,0,1,1.88-.1c.19,0,.29.12.29.36Zm-4.3,15.65a5.58,5.58,0,0,0-1.27-3.63,4.19,4.19,0,0,0-3.38-1.67,4.36,4.36,0,0,0-3.48,1.65,5.56,5.56,0,0,0-1.31,3.72,5.23,5.23,0,0,0,1.35,3.59,4.38,4.38,0,0,0,3.44,1.62,4.21,4.21,0,0,0,3.41-1.64,5.6,5.6,0,0,0,1.24-3.64Zm11.85-12.24c0,1.41-.79,2.12-2.36,2.12s-2.4-.71-2.4-2.12a2,2,0,0,1,.74-1.56,2.4,2.4,0,0,1,1.66-.59,2.46,2.46,0,0,1,1.66.6,2,2,0,0,1,.7,1.55Zm-.14,4.66c0,.89-.05,2.22-.16,4s-.16,3.12-.16,4v3.76c0,1.67.06,2.92.06,3.74,0,.25-.11.37-.31.37H198.4c-.24,0-.37-.24-.37-.71,0-.79,0-2,.07-3.57s.06-2.78.06-3.59-.07-2.23-.2-4-.19-3.13-.19-4c0-.19.12-.29.36-.29a5.36,5.36,0,0,1,1,.08,5.6,5.6,0,0,0,2,0c.33,0,.67-.07,1-.08s.29.11.29.32Zm15.44.31a8.13,8.13,0,0,1-.39,1.69c-.27.87-.45,1.31-.55,1.31l-1.57-.69a4.34,4.34,0,0,0-1.7-.34,4.58,4.58,0,0,0-3.54,1.57,5.34,5.34,0,0,0-1.41,3.69,5.19,5.19,0,0,0,1.41,3.63,4.6,4.6,0,0,0,3.53,1.58,5,5,0,0,0,2.27-.56c.75-.38,1.08-.57,1-.57.15,0,.32.49.5,1.45a12,12,0,0,1,.26,1.8c0,.36-.67.7-2,1.05a11.09,11.09,0,0,1-2.5.43,7.81,7.81,0,0,1-6-2.65,9.22,9.22,0,0,1,0-12.36,7.8,7.8,0,0,1,6-2.62,8.22,8.22,0,0,1,4.42,1.23c.23.14.34.25.34.36Zm6.62-5c0,1.41-.78,2.12-2.36,2.12s-2.4-.71-2.4-2.12a1.93,1.93,0,0,1,.75-1.56A2.39,2.39,0,0,1,222,244a2.46,2.46,0,0,1,1.66.6,2,2,0,0,1,.7,1.55Zm-.14,4.66c0,.89,0,2.22-.16,4s-.15,3.12-.15,4,0,2.09.05,3.76.05,2.92.05,3.74c0,.25-.1.37-.31.37h-3.36c-.24,0-.36-.24-.36-.71q0-1.18.06-3.57c0-1.59.06-2.78.06-3.59s-.07-2.23-.2-4-.19-3.13-.19-4c0-.19.12-.29.36-.29a4.65,4.65,0,0,1,.95.08,5.27,5.27,0,0,0,1.94,0c.33,0,.67-.07,1-.08s.29.11.29.32Zm18.58,15.58c0,.25-.11.38-.34.38H239c-.2,0-.31-.16-.31-.49,0-.57,0-1.42.05-2.57s.06-2,.06-2.58v-4.12a5.11,5.11,0,0,0-.56-2.77,3,3,0,0,0-2.55-1,5.12,5.12,0,0,0-2.39,1c-1.08.68-1.62,1.28-1.62,1.81V266.3c0,.28-.11.43-.33.43h-3.31c-.24,0-.36-.12-.36-.39v-8.18a27.93,27.93,0,0,0-.76-6.76.89.89,0,0,1,0-.23c0-.11.07-.2.22-.24l2-.32,1.94-.3c.06,0,.11.09.13.28a11.17,11.17,0,0,0,.4,2.15c.59-.47,1.38-1.06,2.35-1.75a6.61,6.61,0,0,1,3.5-1.1c2.15,0,3.63.62,4.41,1.87a8.51,8.51,0,0,1,.89,4.46v10.17Zm20-15.23a1.67,1.67,0,0,1,0,.31,40.71,40.71,0,0,0-.69,6.79q0,.18.44,7.72v.24c0,.34-.14.5-.46.5a7.83,7.83,0,0,0-1.43.11,11.18,11.18,0,0,1-1.42.12c-.22,0-.38-.4-.5-1.2s-.22-1.2-.33-1.2a4.4,4.4,0,0,0-.93.67,10.32,10.32,0,0,1-1.89,1.25,6,6,0,0,1-2.72.69,7.12,7.12,0,0,1-5.63-2.67A8.9,8.9,0,0,1,245,258.5a9.26,9.26,0,0,1,2.18-6.31,7.63,7.63,0,0,1,6-2.6,6.5,6.5,0,0,1,4.59,1.83c.2.23.5.56.92,1a.14.14,0,0,0,.1.05c.07,0,.17-.36.29-1.09s.29-1.09.49-1.09a11.55,11.55,0,0,1,1.75.26c.94.21,1.41.4,1.41.56Zm-4.4,7.19a5.49,5.49,0,0,0-1.26-3.62,4.18,4.18,0,0,0-3.39-1.64,4.35,4.35,0,0,0-3.44,1.62,5.73,5.73,0,0,0,0,7.28,4.36,4.36,0,0,0,3.44,1.6,4.18,4.18,0,0,0,3.37-1.63,5.44,5.44,0,0,0,1.28-3.58Zm32.32,4.91a3.52,3.52,0,0,1-.13.79c-.11.44-.17.7-.2.8a14.16,14.16,0,0,1-.24,1.81.4.4,0,0,1-.44.32,4.62,4.62,0,0,1-.65-.08,51.13,51.13,0,0,0-6.55-.31c-.84,0-2.1,0-3.79.07s-3,.07-3.78.07c-.38,0-.57-.16-.57-.49,0-1.29.07-3.23.21-5.8s.21-4.5.21-5.79-.07-3.74-.21-7.31c0-.92-.09-2.29-.19-4.11v-.25c0-.26.13-.39.45-.39.8,0,2,0,3.61.07s2.82.07,3.62.07,1.92,0,3.45-.07,2.69-.07,3.46-.07c.54,0,.83.17.87.5a26.68,26.68,0,0,1,.37,2.81.34.34,0,0,1-.28.39h-.1c-1,0-2.46-.05-4.43-.16s-3.47-.16-4.46-.16a2.6,2.6,0,0,0-1.78.39,2.94,2.94,0,0,0-.37,1.88v2.56a7.24,7.24,0,0,0,.05,1.23c.1.36.4.54.89.54h1.17c2.24,0,4.26,0,6-.13.7,0,1.53-.08,2.48-.17.24,0,.36.08.36.31a16,16,0,0,1-.13,1.7,16.4,16.4,0,0,0-.13,1.71c0,.21-.17.31-.51.31q-.21,0-1.53-.12c-.64-.07-2.09-.11-4.33-.11a35.51,35.51,0,0,0-3.59.08.76.76,0,0,0-.79.71v3.86c0,1.18.18,1.92.55,2.22a3.94,3.94,0,0,0,2.14.36h1.89c.81,0,3.07-.14,6.76-.42h.26c.23,0,.34.13.34.44Zm10.69-1.84a4.93,4.93,0,0,1-2.05,4.12,7.31,7.31,0,0,1-4.54,1.41,5.84,5.84,0,0,1-1.18-.06c-.19-.09-.29-.37-.29-.84a10.54,10.54,0,0,0-.09-1.13,8.32,8.32,0,0,1-.1-1.12c0-.14.11-.24.31-.29a1.72,1.72,0,0,1,.64,0l.51.05c2.18,0,3.26-.67,3.26-2,0-.63-.47-1.21-1.42-1.73a27.14,27.14,0,0,1-2.65-1.57,4,4,0,0,1-1.42-3.2,4.7,4.7,0,0,1,1.95-4,7.21,7.21,0,0,1,4.45-1.29.36.36,0,0,1,.35.22,11.36,11.36,0,0,1,.44,1.4,8.44,8.44,0,0,1,.31,1.41q0,.19-.33.24l-2.22.29q-1.32.36-1.32,1.44c0,.52.46,1,1.38,1.57a15.84,15.84,0,0,1,2.61,1.67,4.56,4.56,0,0,1,1.4,3.43Zm12.08,2.17a8.4,8.4,0,0,1-.07,1c0,.54-.09.88-.1,1a1.58,1.58,0,0,1-.05.38.7.7,0,0,1-.32.24,11,11,0,0,1-4.43.68q-4,0-4-3.65c0-1,0-2.44.06-4.4s.05-3.42.05-4.4a.68.68,0,0,0-.58-.75h-1.38c-.24-.06-.37-.53-.37-1.42,0-.33,0-.67.07-1a.59.59,0,0,1,.56-.5h.84c.53,0,.79-.25.79-.7v-4.22q0-1.26.48-1.26c.1,0,1.18.18,3.21.53a.36.36,0,0,1,.4.38,16.7,16.7,0,0,1-.13,2.28,16.27,16.27,0,0,0-.12,2.27c0,.34.16.5.47.5H313q.3,0,.3.21c0,.22,0,.44-.07.66a5.19,5.19,0,0,0-.05.68v1.58c0,.17-.16.33-.48.33a20.24,20.24,0,0,1-2.09-.09,20.24,20.24,0,0,0-2.09-.09c-.09,0-.16.33-.2,1v6a5.33,5.33,0,0,0,.28,2.06,1.65,1.65,0,0,0,1.69.9,8.16,8.16,0,0,0,1.56-.23,7.87,7.87,0,0,1,1.52-.23c.13,0,.2.1.2.31Zm17-6.1a1.66,1.66,0,0,1-1.1,1.7c-.5.18-4.05.52-10.67,1a3.85,3.85,0,0,0,1.67,2.58,4.92,4.92,0,0,0,3,1,8,8,0,0,0,5-1.74l.56-.45a.28.28,0,0,1,.18,0,12.32,12.32,0,0,1,.64,1.19,9.5,9.5,0,0,1,.61,1.24c0,.07-.09.2-.28.39a8.68,8.68,0,0,1-15.23-6.06,9.12,9.12,0,0,1,2.27-6.18,7.49,7.49,0,0,1,5.87-2.74,7,7,0,0,1,5.4,2.37,8,8,0,0,1,2.11,5.62Zm-4.09-1.05a3.4,3.4,0,0,0-1.13-2.53,3.54,3.54,0,0,0-2.54-1.1A3.81,3.81,0,0,0,319.9,254a4,4,0,0,0-1.24,2.85c0,.24.21.36.62.36a44.55,44.55,0,0,0,6.1-.51c.67-.09,1-.2,1-.34Zm1.73-12.46c-.17.47-1.44,1.35-3.8,2.62s-3.74,1.88-4.29,1.88c-.21,0-.39-.29-.55-.86a4.83,4.83,0,0,1-.17-1.13q0-.18.33-.33a36.74,36.74,0,0,0,5.91-3.73,1.4,1.4,0,0,1,.26-.16,1.12,1.12,0,0,1,.22.16,16.6,16.6,0,0,0,1.9,1.33A.67.67,0,0,1,328.11,243.9Zm14.38,19.61a8.4,8.4,0,0,1-.07,1,5.89,5.89,0,0,1-.1,1,1.58,1.58,0,0,1-.05.38.78.78,0,0,1-.33.24,10.78,10.78,0,0,1-4.43.68q-4,0-4-3.65v-4.4c0-2,.06-3.42.06-4.4a.67.67,0,0,0-.58-.75h-1.38c-.25-.06-.37-.53-.37-1.42a8.4,8.4,0,0,1,.07-1,.59.59,0,0,1,.55-.5h.84c.53,0,.8-.25.8-.7v-4.22q0-1.26.48-1.26c.1,0,1.17.18,3.21.53a.36.36,0,0,1,.4.38c0,.51,0,1.27-.13,2.28s-.12,1.77-.12,2.27c0,.34.16.5.47.5H342q.3,0,.3.21c0,.22,0,.44-.07.66s-.05.45-.06.68v1.58c0,.17-.16.33-.48.33s-1.16,0-2.1-.09a20.27,20.27,0,0,0-2.08-.09c-.09,0-.16.33-.21,1v6a5.52,5.52,0,0,0,.27,2.06,1.67,1.67,0,0,0,1.7.9,8.17,8.17,0,0,0,1.55-.23,8.72,8.72,0,0,1,1.52-.23c.14,0,.21.1.21.31Zm6.94-17.44c0,1.41-.79,2.12-2.36,2.12s-2.4-.71-2.4-2.12a2,2,0,0,1,.74-1.56,2.4,2.4,0,0,1,1.66-.59,2.46,2.46,0,0,1,1.66.6,2,2,0,0,1,.7,1.55Zm-.14,4.66c0,.89-.06,2.22-.16,4s-.16,3.12-.16,4,0,2.09,0,3.76.05,2.92.05,3.74c0,.25-.1.37-.31.37H345.4c-.24,0-.36-.24-.36-.71q0-1.18.06-3.57c0-1.59.06-2.78.06-3.59s-.06-2.23-.19-4-.2-3.13-.2-4c0-.19.12-.29.36-.29s.63,0,.95.08a5.6,5.6,0,0,0,2,0c.33,0,.67-.07,1-.08s.3.11.3.32Zm15.44.31a8.13,8.13,0,0,1-.39,1.69c-.27.87-.46,1.31-.56,1.31l-1.56-.69a4.35,4.35,0,0,0-1.71-.34,4.59,4.59,0,0,0-3.53,1.57,5.36,5.36,0,0,0-1.41,3.69A5.19,5.19,0,0,0,357,261.9a4.6,4.6,0,0,0,3.53,1.58,5.11,5.11,0,0,0,2.27-.56c.75-.38,1.08-.57,1-.57.15,0,.32.49.5,1.45a12,12,0,0,1,.26,1.8c0,.36-.67.7-2,1a11.1,11.1,0,0,1-2.49.43,7.81,7.81,0,0,1-6-2.65A9.24,9.24,0,0,1,354,252.1a7.83,7.83,0,0,1,6-2.62,8.16,8.16,0,0,1,4.41,1.23c.23.14.35.25.35.36Zm18.89,0a1.7,1.7,0,0,1-.06.31,41.78,41.78,0,0,0-.68,6.79c0,.12.14,2.69.44,7.72v.24c0,.34-.14.5-.45.5a8,8,0,0,0-1.44.11,11.18,11.18,0,0,1-1.42.12c-.22,0-.38-.4-.5-1.2s-.22-1.2-.33-1.2a4.4,4.4,0,0,0-.93.67,10.32,10.32,0,0,1-1.89,1.25,6,6,0,0,1-2.72.69,7.15,7.15,0,0,1-5.63-2.67,8.87,8.87,0,0,1-2.17-5.94,9.27,9.27,0,0,1,2.19-6.31,7.6,7.6,0,0,1,6-2.6,6.52,6.52,0,0,1,4.6,1.83c.19.23.5.56.91,1a.14.14,0,0,0,.1.05c.07,0,.18-.36.3-1.09s.29-1.09.49-1.09a11.24,11.24,0,0,1,1.74.26c.95.21,1.42.4,1.42.56Zm-4.41,7.19a5.49,5.49,0,0,0-1.26-3.62A4.16,4.16,0,0,0,374.6,253a4.35,4.35,0,0,0-3.44,1.62,5.46,5.46,0,0,0-1.32,3.64,5.37,5.37,0,0,0,1.32,3.61,4.36,4.36,0,0,0,3.44,1.6,4.21,4.21,0,0,0,3.38-1.63,5.43,5.43,0,0,0,1.27-3.58Zm20.77,8c0,.24-.17.36-.5.36a6.72,6.72,0,0,1-1,0,7.49,7.49,0,0,0-.94-.05,8.61,8.61,0,0,0-1,.05,7.88,7.88,0,0,1-.95,0,.39.39,0,0,1-.43-.39q0-2,.18-5.91c.12-2.64.18-4.61.18-5.93s-.06-3.19-.18-5.74-.18-4.47-.18-5.74c0-.29.14-.43.4-.43a8.1,8.1,0,0,1,1,.05,9.11,9.11,0,0,0,1,.06,6.07,6.07,0,0,0,.93-.06,5.78,5.78,0,0,1,.93-.05c.21,0,.45.12.45.35,0,1.28,0,3.2-.14,5.78s-.15,4.49-.15,5.78,0,3.3.15,5.94.22,4.7.22,6Z"/><path class="cls-1" d="M418.76,266.34c0,.25-.12.38-.35.38H415c-.21,0-.31-.16-.31-.49,0-.57,0-1.42.05-2.57s.05-2,.05-2.58V257a5,5,0,0,0-.57-2.77,3,3,0,0,0-2.54-1,5.16,5.16,0,0,0-2.4,1c-1.07.68-1.61,1.28-1.61,1.81v10.33c0,.28-.11.43-.33.43h-3.31c-.24,0-.36-.12-.36-.39v-8.18a28.49,28.49,0,0,0-.76-6.76.59.59,0,0,1-.05-.23c0-.11.07-.2.22-.24l2-.32,1.94-.3c.06,0,.11.09.13.28a11.15,11.15,0,0,0,.39,2.15c.6-.47,1.39-1.06,2.36-1.75a6.61,6.61,0,0,1,3.5-1.1c2.15,0,3.63.62,4.41,1.87a8.5,8.5,0,0,1,.88,4.46v10.17Zm12.87-2.8a5.64,5.64,0,0,1-.07,1c-.07.41-.09.88-.1,1a1.21,1.21,0,0,1-.06.38.7.7,0,0,1-.32.24,10.78,10.78,0,0,1-4.43.68q-4,0-4-3.65c0-1,0-2.44.05-4.4s.05-3.42.05-4.4a.68.68,0,0,0-.58-.75h-1.38c-.24-.06-.36-.53-.36-1.42a8.4,8.4,0,0,1,.07-1c0-.27.22-.44.55-.5a3.92,3.92,0,0,1,.84,0c.53,0,.79-.25.79-.7V245.8c0-.84.16-1.26.49-1.26.09,0,1.17.18,3.21.53a.35.35,0,0,1,.39.38q0,.77-.12,2.28c-.08,1-.12,1.77-.12,2.27,0,.34.15.5.47.5h4.15c.19,0,.29.07.29.21s0,.44-.06.66-.05.45-.06.68v1.58c0,.17-.15.33-.48.33s-1.15,0-2.09-.09a20.27,20.27,0,0,0-2.08-.09c-.09,0-.16.33-.21,1v6a5.33,5.33,0,0,0,.28,2.06,1.65,1.65,0,0,0,1.69.9,8.16,8.16,0,0,0,1.56-.23,7.87,7.87,0,0,1,1.52-.23c.14,0,.21.1.21.31Zm17-6.1a1.66,1.66,0,0,1-1.09,1.7q-.75.27-10.68,1a3.87,3.87,0,0,0,1.68,2.58,4.86,4.86,0,0,0,3,1,8,8,0,0,0,5-1.74l.55-.45a.28.28,0,0,1,.18,0s.25.42.65,1.19a9.44,9.44,0,0,1,.6,1.24q0,.1-.27.39a8.69,8.69,0,0,1-15.25-6,9.12,9.12,0,0,1,2.27-6.18,7.49,7.49,0,0,1,5.87-2.74,7,7,0,0,1,5.4,2.37,8,8,0,0,1,2.11,5.62Zm-4.08-1.05a3.49,3.49,0,0,0-1.13-2.53,3.58,3.58,0,0,0-2.55-1.1,3.83,3.83,0,0,0-2.81,1.27,4,4,0,0,0-1.23,2.85c0,.24.2.36.61.36a44.56,44.56,0,0,0,6.11-.51c.66-.09,1-.2,1-.34Zm21.67-5.75v12.41c0,2.73-.59,4.74-1.75,6s-3.19,2.07-5.9,2.07a12,12,0,0,1-6.31-1.47c-.25-.16-.38-.3-.38-.42,0,.13.17-.72.51-2.54a.26.26,0,0,1,.24-.29.5.5,0,0,1,.23.09A10.46,10.46,0,0,0,458,268a5,5,0,0,0,2.84-.76,2.83,2.83,0,0,0,1.29-2.49c0-.24,0-.78-.07-1.62a6,6,0,0,1-4.86,2.33,6.66,6.66,0,0,1-5.23-2.29,7.84,7.84,0,0,1-2-5.42,8.49,8.49,0,0,1,1.9-5.57,6.5,6.5,0,0,1,5.24-2.44,5.4,5.4,0,0,1,4.52,2.18c.19.24.32.36.4.36s.13-.11.13-.31v-1.44c0-.69.06-1,.2-1s.73.11,1.85.32a18.58,18.58,0,0,1,1.83.39c.16.06.24.2.24.45Zm-4.12,7.1a5.2,5.2,0,0,0-1.05-3.27,3.8,3.8,0,0,0-6,0,5.12,5.12,0,0,0-1,3.25A5,5,0,0,0,455,261a3.75,3.75,0,0,0,5.27.73A3.88,3.88,0,0,0,461,261a5,5,0,0,0,1.09-3.23Zm17.13-7.22A21.35,21.35,0,0,1,479,254a.34.34,0,0,1-.35.39,10,10,0,0,1-1.09-.08c-.49-.05-.86-.07-1.12-.07-1.45,0-2.37.4-2.77,1.22a8,8,0,0,0-.37,3.08v1.89c0,.64,0,1.62.07,2.93s.07,2.28.07,2.93c0,.3-.13.46-.39.46h-3.21a.37.37,0,0,1-.4-.33v-.09c0-.93,0-2.34.05-4.2s0-3.28,0-4.22a24.59,24.59,0,0,0-.78-6.83.74.74,0,0,1,0-.21.31.31,0,0,1,.22-.29l1.78-.22c.57-.09,1.14-.21,1.7-.35.18,0,.31.34.36,1s.16,1,.31,1h.09l1.41-.91a6.67,6.67,0,0,1,1.6-.69,5.56,5.56,0,0,1,1.72-.21c.9,0,1.35.13,1.35.37Zm18.64.59a1.67,1.67,0,0,1-.05.31,40.71,40.71,0,0,0-.69,6.79q0,.18.44,7.72v.24c0,.34-.14.5-.46.5a7.83,7.83,0,0,0-1.43.11,11.18,11.18,0,0,1-1.42.12c-.22,0-.38-.4-.5-1.2s-.22-1.2-.33-1.2a4.4,4.4,0,0,0-.93.67,10.32,10.32,0,0,1-1.89,1.25,6,6,0,0,1-2.72.69,7.12,7.12,0,0,1-5.63-2.67,8.87,8.87,0,0,1-2.17-5.94,9.26,9.26,0,0,1,2.18-6.31,7.63,7.63,0,0,1,6-2.6,6.52,6.52,0,0,1,4.6,1.83c.19.23.49.56.91,1a.14.14,0,0,0,.1.05c.07,0,.17-.36.3-1.09s.28-1.09.48-1.09a11.55,11.55,0,0,1,1.75.26c.94.21,1.41.4,1.41.56Zm-4.4,7.19a5.49,5.49,0,0,0-1.26-3.62,4.18,4.18,0,0,0-3.39-1.64,4.35,4.35,0,0,0-3.44,1.62,5.46,5.46,0,0,0-1.32,3.64,5.37,5.37,0,0,0,1.32,3.61,4.36,4.36,0,0,0,3.44,1.6,4.18,4.18,0,0,0,3.37-1.63,5.44,5.44,0,0,0,1.28-3.58ZM505,242.82V243q-.37,6.39-.37,11c0,1.33,0,3.38.07,6.13s.07,4.76.07,6.12c0,.27-.09.39-.27.39h-3.3c-.21,0-.31-.12-.31-.39V254c0-1.36-.06-3.1-.18-5.59s-.18-4.34-.18-5.56a.32.32,0,0,1,.29-.35h.07a7.19,7.19,0,0,1,.93.05,7.62,7.62,0,0,0,.93.06,7.26,7.26,0,0,0,1-.06,6.13,6.13,0,0,1,.94-.05C504.9,242.54,505,242.63,505,242.82Z"/><path class="cls-1" d="M318.32,134.07c1.19,4.3,6.54,21.74,1.68,5.81C319.81,139.25,316.53,127.27,318.32,134.07Zm29.22,46.17a77,77,0,0,1-26.47-40.09,176,176,0,0,1-4.51-24.33c3,3.78,8.8,21,11.57,27.19,3.26,7.32-3.08-6.32-3.26-6.7-5.4-11.28,3.38,15.17,3.56,15.62,4.35,10.83,3.36,3.44,9.79,10.33,2.53,2.71,4.77,6.26,7.83,9.41,3.35,3.45,14,11.09,3.17,4.36-4.54-2.83-7.32-5.52-11.13-9.18,18.18,22.43,52.62,35.58,80.85,27.59,11.2-3.17,19.7-7.54,30.24-11.53a31.93,31.93,0,0,1,8.3-2.21c-3.49,4.82-4.17,3.76-9.72,6-27.44,11.3-45.35,19.72-75.22,8.3C363.12,191.33,355.47,186.4,347.54,180.24Z"/><path class="cls-1" d="M428,19c6.06.45,6.13,1.92,12.06,3.43,18.35,4.69,25.81,9.06,38.23,23.58,6.31,7.38,10.27,14.23,14.68,22.77-2.19-3.52-6.56-9.49-7.93-12.92-1-2.6-11-12.69-13.46-14.68-11.9-9.49-20.39-13.52-34.89-17.51-.71-.2-11.69-3-10.4-4.45C426.17,19.07,427.94,19,428,19Z"/><path class="cls-1" d="M469.32,174.89c-2.77,2.21.16-.22-.53,3.44-.5,2.66-2.12,3.06-4.43,5.14-3.2,2.88,2.42-2.21.76-5.27-2.19,7.1-7.52,10.54-13.54,14.46-8.34,5.42,12.29-10.27,2.74-8.34C456.94,181.68,457,180,461,180c2.07,0,2,3,4.08-2.66.89-2.34-.23,3.38,1.24.67a29,29,0,0,1,4-6C470.91,174.7,470.42,174,469.32,174.89Z"/><path class="cls-1" d="M310.25,121.67c.14,1.55-.06.66.56,1.54a81.31,81.31,0,0,1,.59-11.88,157.34,157.34,0,0,0,2,21.88,157.34,157.34,0,0,1-2-21.88c-1.11,7.47-.31,14.17-.18,21.56-.36-2.88-1-17.33-.81-5.74.07,5.32-.33-2.59-.37-3.15-.36-6-.12-12.6-1.21-18.41-.21-7.1,6.4-22.9,9.3-29.83.61-1.46-3,6.1-3.57,7.35a130.12,130.12,0,0,0-7.22,23.46c-.49-1,2-10.43,2.39-11.49,2.84-7.71,9.32-25.19,15.45-30.38-.61.81-5.79,7.33-3.56,5.83,1.91-1.28-1.45,3.69-1.82,4.35-.9,1.62-6.74,12.57-1.88,3.94,4.2-7.46.08,1.69-.7,4.83,1-5.9-5.09,11.63-5.11,11.69C309.59,104.26,309.48,112.51,310.25,121.67Z"/><path class="cls-1" d="M423.27,201.63c-5.56,2.43-6.3,1.17-12.26,2.61-18.41,4.43-27.05,4-44.81-3-9-3.58-15.73-7.78-23.63-13.27,3.59,2.09,10.25,5.32,13.06,7.72,2.13,1.81,15.62,6.1,18.75,6.69,15,2.83,24.35,2.42,39-.82.72-.16,11.72-2.85,11.27-.93C424.83,200.74,423.3,201.62,423.27,201.63Z"/><path class="cls-1" d="M494.41,80.26c.85,3.44,3.48,13.4,3,16.37-.15.93,3.66,14.79,2.68,21.6-1.85,13-.74,1.83-.86-3.34A103.2,103.2,0,0,0,498,101.3c.06.73,1,20.74,0,10.58-.33-3.26-1.21-9.72-2.25-12.66a97.53,97.53,0,0,1,1.76,20.1c-.18-3.79-.53-10.45-1.55-14a110.27,110.27,0,0,1,.5,18.17c-.07-3.52-.13-9.52-.91-12.75a150.85,150.85,0,0,1-.41,16.74c0-1.06-.09-16.92-.56-6.85-.21,4.53-.67,8.7-1.24,13.19-1-7.58-2.14-2.07-.18-11.43,1.18-5.59,2.94-13.44,1.92-19a74,74,0,0,0-2.57-9.61c1.18,14.68-.41,37.4-6.21,50.91-1,2-3.62,5.76-2.82,7.89.33.85,1.15-2.09,1.46-2.85.73-1.75.91-3.85,1.66-1.45-.06,3.06-4.39,11.37-5.79,14.86-3.72-9.95-3.77,2.4-6.75,4.64-2.6,1.95-.21,2.54-.46,4-.5,0-2.63-.55-1.78-1.57s5.3-13.39,6.3-15.68c8.64-19.75,13.64-37.14,12.9-59-.15-3.37-.57-6.87-.61-10.17,1.15-.2.87,6,.7-4.5-.08-4.47,1.8,2.38,2.19,3.49,1.16,3.34,6,19,2.09,4.65-2.05-7.56-3.6-10.72-7.38-18,1.27-.4,2.65,3.8,3.31,5.25,1.13,2.5,5.75,15.82,2.28,4.88-1.26-4-7.21-14.89-9.38-18.71,3.62,3.41,9.66,18.28,11.45,23.26A243,243,0,0,0,484,59.77c-2.08-4.12-4.47-7.85-6.63-11.87,7.32,9,12.4,19.65,16.5,30.44l.61,1.92Zm2.74,5.34a43.77,43.77,0,0,0-4.1-9c1.68,3.85,3.25,7.57,4.67,11.52,3.37,9.32.54.84-.57-2.53ZM476.86,46.31a41.43,41.43,0,0,0-7.23-6.58c6.93,5.8,11.07,11,15.89,18.6a91.16,91.16,0,0,0-8.66-12Zm1.24,116.88a21.93,21.93,0,0,0-2.18,5.22c-.83,4.22.62.85,2-1,1.13-1.52,1.46-5.41.18-4.22Z"/><path class="cls-1" d="M377.62,21.54c-4.44,3.8-8.54,6.15-13.27,9.41.74-.56,21.86-14.57,10.32-10.21-2.38.91,2.6-2.41,3.21-2.92s5.57-5.31,6-5c.84.71.09,4.53-1.7,4.87-.38.07-3.9,3.24-4.57,3.8Zm-5.33,1.15a40.31,40.31,0,0,0-5.19,3.5C362.91,30.56,371.81,23.11,372.29,22.69Zm2.2-.65c-.16,0-3.27,2.14-3.76,2.48C359.33,32.61,370.31,25.59,374.49,22Zm2.08-1c-.49.25-3.85,2.83-4.71,3.44C364.59,29.59,373.62,24,376.57,21Zm.37.35-1,.73C368.38,27.68,371.76,26.49,376.94,21.39Zm7.22-9.34a10.58,10.58,0,0,1,.56,2.67c1.34-.36-1-3.3-.56-2.66Z"/><path class="cls-1" d="M319.64,71.92a195,195,0,0,0-11.06,26.56c1.88-13,3.29-16.81,11-27.55,2.15-3,5.27-7.31,8.39-9.13-1.76,2.67-5.39,4.46-7.87,9.27l-.44.85Zm-10.77,31.81-.08.64a137,137,0,0,1,9.45-28.86c-5,9.09-7.56,18-9.37,28.22Zm8.83-24.49,1.43-2.48c5.82-10.12,2.46-5.1-.24-.28C317.78,78.48,313.89,85.8,317.7,79.24Z"/><path class="cls-1" d="M330.44,39.08c-4.81,7-11.7,12.3-17.5,18.65-1.11-2.94-2.57-1.23,3.32-6.75,1.74-1.63,13.68-12.56,14.67-13.07Z"/><path class="cls-1" d="M308.53,67.85c-1.46,3.48-5.6,15.09-8.35,16.6-.7-1,.81-5,1.66-6.48,2.23-3.73,4.77-8.18,7.32-11.63Z"/><path class="cls-1" d="M329.85,155.24a83.49,83.49,0,0,1-4.52-12.83,91.51,91.51,0,0,0,12.93,19.79c-.89-.73-4.25-3.64-5.14-3.88C331,157.75,331.79,159.65,329.85,155.24Z"/><path class="cls-1" d="M356.47,183.8c-7.14-4.74-13.9-9.77-19.24-16.58,7.71,7.41,13,10.48,22.17,15.81,18.62,10.56,40.45,13.83,60.9,6.88C476.55,170.79,500.67,117,477,63.23c-8.56-19.44-25.66-31.85-46.16-36.33-5.59-1.22-7.55.63-14.89-1.29-5.12-1.36-8.72-2.73-13.59-4.31-4.6-1.5-13.15,1.64-12.71-3.14.33-3.54-1.42,6-.82.11.55-5.47-.95,4.89-.63-1.34.05-.93-1.66,5.61-1.17,1,.36-3.42,0-.39-1.25,1.17,1.67-6.6.45.1-1.93,1,.16-3.72-4.34,3.57-7.78,3.6-.34-.69,4-3-3.84,2-5.21,3.31,3.13-2.49,4.4-3.57.8-.69,5.81-4.61,6.05-5,5.6-9.57-8,2.94-9.21,4.16.07,0,7.11-3.44,2.29,1.18-1.54,1.47-10.25,7.32-3.19,2.24,10.11-7.27-2.34,1.29-4.16,2.46,2.7-2.07,5-3.51,7.64-5.86C372.14,24,368.87,26.4,364.76,29c1.81-1.38,15.06-10.67,4.51-3.73-4.38,2.88-7.67,5.35-.87.24,5.84-4.39,3.12-2.27-.58-.22-15.39,8.5-22.77,9.75-34,25.34-5.41,7.52-11.42,15.28-16.62,22.78-8.26,11.92-8.16,16.77-10.31,30.45-.16,1-.33,2-.4,3.08a110.56,110.56,0,0,1,5.2-17.85c-1.68,5.32-4.11,12-3.52,17.62,1.2,5.88.54,15.9,1.39,22.66.16-12.16,0-4.24.66,2.54.44,4.73-.11-4.67-.12-4.88a80.15,80.15,0,0,1,.45-15.33,157.42,157.42,0,0,0,1.95,21.89c.21-2.5.4-4.88.75-7.37,4.06,2.09,6.86,20.79,8.27,20.47.77-.18,2.87,5.62,3.33,6.54,17.72,34.38,58.52,56.28,96.49,44,10.8-3.49,19.6-8,29.83-11.77,14.25-5.28-8.41,12.75.05,7.27,1.76-1.15,10.22-8.14,10.79-8.22,1.58-.25,5.66-4.46,7.46-5.89.85-.68,2.56-2.38.12-1.21-2.13,1-1.25-.31-2.36-1.39,0,0,2.41-2.24,2.93-1.91,2.81,1.79,1.5,7.45,4.92-2.88,1.84-5.56,3.65-1.56,2.51-8.38-.77,1.64-1.91,5-2.71,6.21-2.67-.62,1.91-8.66,2.72-9.51,3.47,3,.36,7.32,4-1.61,1.35-3.31,2.67-9,6.26-9.34.39-2.25,2.13-11.82,1.38-13.21-1.77,2.71-5.18,12.76-5.25,12.83-.56.53.07-2.06-1.08,2-.1.38-1,5.21-1.3,1.89-.06-.57,3.67-7.94,4.17-9.29,2.19-5.87,2.51-8.53,3.29-14.58.56-4.4,2.37,4.63,2.38,4.78.41,4-.56,15.39,1.14,3.84,1.18-8,1.58-15.18.75-.42-.5,8.77,1.22-7.49,1.28-8.29,1.05-12.37-.05,6.12.06,7.89A135.63,135.63,0,0,0,496,119.69c.05,2.54-.6,22.43.41,8.51.32-4.46.4-8.58.35-13.06,1.14,9.85.61,13,2.2.83,2.78,9.78,3-9.43,2.89-10.61-1-19.89-7.56-33.77-14.68-51.75,5.64,6.66,4.35,5.68,8.44,13.54,5.52,10.61,8.5,21.24,8.54,33.21.15,39.72-17.84,74.18-50.18,94.49-27,17-54.31,19.91-84.91,9.15a109.12,109.12,0,0,1-12-5.23c-22.22-11-40.35-27.72-47.23-52.19-1-3.56-4.71-21.11-6.83-22.67-.69-.51-.36-6-.42-7.24-.72,3.88-.9,15.71-1,3.11-.1-9.66-.33-7-2.23.1.13-3.73,1-11.8.77-14.86-1.66,1.65-1.91,6.4-1.47,0,1.51-19.2,5-27.61,12.38-44.49,3.09-7,13.38-13.4,18.9-21.61,2.3-3.44,13.25-14.47,16.89-16.19s7.86-3.18,11.68-4.75c-4.82,1.21-9.9,3.1-.88-.29,1.49-.56,10.69-3.6,11.35-4-1.3,0-13.77,1-5.38-.16S384.17,6.69,388.47,16c2.06,4.43,4.25-2,4.62-1.46,2.46,3.69,9-.27,12.7-.61,4.62-.42,2.62-3.8,13.13-1,4.7,1.22,9.18,3.11,13.78,4.68,13.1,4.19,22.83,7.24,33.77,16,12,9.67,18.73,21.69,25,35.6-7-13.57-13.51-23.74-25-34-7.15-6.35-16.47-9.78-25.62-12-3-.73-6.18-1.4-8.81-3.07-2-1.27-17.4-1.68,6.21,4.54a74.39,74.39,0,0,1,45.16,32.93c2.8,4.4-4.3-6.36-4.57-6.73-2.23-2.93-10.42-12.2-1.56-2.43,7.05,7.76,8.06,10.93,12.13,20.49,1.86,4.34,3.4,8.47,4.88,13-1-1.84-4.14-8.56-1.55-2.24-4.49-11.48-9-21.75-16.87-31.38,3.52,6.52,6.44,11.22,9.58,18.08,1.59,3.46,5.46,10.08.16.83-1.39-2.42-4.8-8-1.1-1.3,4.14,7.53,3,5,2,5.5.93,2.09,3.49,7,3.22,9a44.59,44.59,0,0,0,.41,7.57c-2.83-5.61-1,2-.74,4.7,1.83,22-3.71,41.67-12.59,61.6-2.37,5.3-2.89,9.21-4.85,14.34-1.06,2.8-8,9.92-8,10-2.12,4.78-1.43,1-5.29,1.9-6.37,1.52-8.5,1.88-14.85,4.58-28.29,12-45,18-75.19,5.19a78.4,78.4,0,0,1-12.11-6.51ZM479.74,44l.2.25C477.8,41.55,478.54,42.49,479.74,44ZM468.58,27.26c-4-3.42-9.4-4.68-14.14-6.77-4.18-1.85,1.9,2.49,2.26,2.72,11.84,7.51,16.86,11.27,25.89,22.59.1.13,9.15,13.29,8,9.11C488,45,476.19,33.84,468.58,27.26Z"/></g></g></svg>