<svg xmlns="http://www.w3.org/2000/svg" viewBox="0 0 336.54 336.54"><defs><style>.cls-1{fill:#00283a;}</style></defs><g id="Capa_1" data-name="Capa 1"><path class="cls-1" d="M168.72,318.11c-82.67,0-149.94-67.26-149.94-149.93S86.05,18.24,168.72,18.24,318.66,85.5,318.66,168.18,251.4,318.11,168.72,318.11Zm0-282.87c-73.3,0-132.94,59.64-132.94,132.94S95.42,301.11,168.72,301.11s132.94-59.63,132.94-132.93S242,35.24,168.72,35.24Z"/></g><g id="Capa_4" data-name="Capa 4"><path class="cls-1" d="M235,126.76A41.44,41.44,0,0,0,193.59,166v2.13c0,.43,0,.85,0,1.27v0a24.85,24.85,0,0,1-49.66-1v-.83A41.41,41.41,0,1,0,135.62,193a41.86,41.86,0,0,0,8.28,8.27,41.44,41.44,0,0,0,57.95-8.24,41.41,41.41,0,1,0,33.1-66.3ZM102.49,193a24.85,24.85,0,1,1,24.85-24.86A24.86,24.86,0,0,1,102.49,193ZM235,193a24.84,24.84,0,0,1-24.81-23.51c0-.45,0-.9,0-1.35s0-1.19.06-1.78A24.85,24.85,0,1,1,235,193Z"/></g></svg>