<svg id="Capa_1" data-name="Capa 1" xmlns="http://www.w3.org/2000/svg" viewBox="0 0 258.19 48.31"><defs><style>.cls-1{fill:#cecece;}</style></defs><path class="cls-1" d="M12,7.61S14.74,8.89,15.45,7c0,0,1-2.28-.92-2.84,0,0-.36-2.63,1.56-2.63,0,0,2.34-.07,1.85,2,0,0-1.28.84-.64,1.27a2,2,0,0,0,2.2-1.7A2.75,2.75,0,0,0,17,.17S14.1-1,11.62,2.65a10.51,10.51,0,0,0-1,8.31,19.59,19.59,0,0,0,4.55,7.46s-2.91-.34-2.42,1.66c0,0-2.3-.21-2.6,1.56,0,0-1.73.64-1.73-1.21a1,1,0,0,1,1.06-.94,1,1,0,0,1,.65.3s1.2-.85-.57-1.34c0,0-2.49-.57-2.49,2.48,0,0,.07,2.63,3.48,2.06,0,0,.5,1.92,4-.78,0,0,2.63,2.41,2.91-1.56,0,0,3.55,2.34,5.47,2.27l-1.66-1.84S10.13,15.78,12,7.61Z"/><path class="cls-1" d="M7.5,12.27S8.87,15,7,15.77c0,0-2.24,1.06-2.87-.83,0,0-2.63-.27-2.57,1.64,0,0,0,2.35,2.05,1.78,0,0,.8-1.3,1.25-.68A2,2,0,0,1,3.2,19.94a2.75,2.75,0,0,1-3-2.39S-1,14.68,2.52,12.08a10.51,10.51,0,0,1,8.27-1.27,19.49,19.49,0,0,1,7.6,4.3s-.45-2.9,1.55-2.47c0,0-.29-2.29,1.48-2.65,0,0,.58-1.75-1.27-1.69a1,1,0,0,0-.53,1.78s-.81,1.23-1.37-.53c0,0-.64-2.46,2.41-2.56,0,0,2.62,0,2.17,3.41,0,0,1.93.43-.65,4.07,0,0,2.5,2.55-1.47,3,0,0,2.46,3.47,2.45,5.39l-1.88-1.78S15.62,10.16,7.5,12.27Z"/><path class="cls-1" d="M7.62,8.54l.5-.5s-2.7-4.12-.5-5.4c0,0,1.35-.56,1.35.86,0,0,.5.85,1.06-.07a2,2,0,0,0-1.7-2.26A2,2,0,0,0,7,1.43S5.47-.35,5.47,3.34c0,0-.28.79-.78-1.34,0,0-.71-2.49-2.77-.36,0,0-.71-.71-1.21-.35l2.21,2.2s2.91.85,3,2.84Z"/><path class="cls-1" d="M8.14,8l-.48.51S3.48,5.92,2.25,8.15c0,0-.54,1.36.88,1.33,0,0,.86.48,0,1.06A2,2,0,0,1,.86,8.86,2,2,0,0,1,1.08,7.6S-.72,6.08,3,6c0,0,.77-.3-1.37-.75,0,0-2.5-.66-.41-2.76,0,0-.73-.7-.38-1.2L3.05,3.44S4,6.34,6,6.37Z"/><path class="cls-1" d="M40.54,12.08s-1.28,2.77.64,3.48c0,0,2.27,1,2.84-.92,0,0,2.62-.36,2.62,1.56,0,0,.07,2.34-2,1.85,0,0-.84-1.28-1.27-.64a2,2,0,0,0,1.7,2.2A2.75,2.75,0,0,0,48,17.08s1.14-2.91-2.48-5.39a10.51,10.51,0,0,0-8.31-1,19.63,19.63,0,0,0-7.45,4.55s.35-2.91-1.64-2.42c0,0,.22-2.3-1.56-2.6,0,0-.64-1.73,1.21-1.73a1,1,0,0,1,.94,1.06,1,1,0,0,1-.3.65s.85,1.2,1.35-.57c0,0,.56-2.49-2.49-2.49,0,0-2.63.08-2.06,3.48,0,0-1.92.5.78,4.05,0,0-2.41,2.63,1.56,2.91,0,0-2.34,3.55-2.27,5.47l1.78-1.71S32.37,10.19,40.54,12.08Z"/><path class="cls-1" d="M35.88,7.56S33.16,8.93,32.38,7c0,0-1.06-2.23.83-2.86,0,0,.27-2.64-1.64-2.58,0,0-2.35,0-1.78,2,0,0,1.3.8.68,1.25a2,2,0,0,1-2.26-1.63,2.74,2.74,0,0,1,2.39-3S33.47-1,36.07,2.52a10.43,10.43,0,0,1,1.27,8.27,19.56,19.56,0,0,1-4.3,7.6s2.9-.45,2.47,1.55c0,0,2.29-.29,2.65,1.48,0,0,1.75.58,1.69-1.26a1,1,0,0,0-1.08-.91,1.06,1.06,0,0,0-.65.32s-1.23-.81.53-1.36c0,0,2.46-.65,2.56,2.4,0,0,0,2.63-3.41,2.17,0,0-.43,1.93-4.07-.65,0,0-2.55,2.5-3-1.47,0,0-3.47,2.46-5.39,2.45L27,21.28S38,15.66,35.88,7.56Z"/><path class="cls-1" d="M39.62,7.7l.5.5s4.12-2.7,5.4-.5c0,0,.56,1.35-.86,1.35,0,0-.85.5.08,1.07A2,2,0,0,0,47,8.42a2,2,0,0,0-.26-1.3s1.78-1.56-1.91-1.56c0,0-.78-.28,1.35-.78,0,0,2.48-.71.35-2.77,0,0,.71-.71.36-1.2L44.62,3s-.85,2.91-2.84,3Z"/><path class="cls-1" d="M40.13,8.2l-.51-.48s2.61-4.18.38-5.41c0,0-1.36-.54-1.33.88,0,0-.48.86-1.06,0A2,2,0,0,1,39.36.91a2,2,0,0,1,1.19.23S42.07-.66,42.15,3c0,0,.3.77.75-1.37,0,0,.66-2.5,2.76-.41,0,0,.7-.73,1.2-.38L44.71,3.08S41.81,4,41.78,6Z"/><path class="cls-1" d="M36.19,40.69s-2.77-1.28-3.48.64c0,0-1,2.27.93,2.84,0,0,.35,2.63-1.56,2.63,0,0-2.35.07-1.85-2,0,0,1.28-.84.64-1.27a2,2,0,0,0-2.2,1.7,2.76,2.76,0,0,0,2.48,2.91s2.91,1.13,5.4-2.49a10.49,10.49,0,0,0,1-8.3A19.45,19.45,0,0,0,33,29.89s2.91.36,2.41-1.63c0,0,2.3.21,2.61-1.56,0,0,1.72-.64,1.72,1.2a1,1,0,0,1-1.07.93,1,1,0,0,1-.63-.29s-1.21.85.57,1.35c0,0,2.48.57,2.48-2.48,0,0-.07-2.63-3.48-2.06,0,0-.49-1.92-4,.78,0,0-2.63-2.42-2.91,1.56,0,0-3.55-2.34-5.47-2.27l1.7,1.77S38,32.53,36.19,40.69Z"/><path class="cls-1" d="M40.67,36.08s-1.37-2.73.52-3.5c0,0,2.24-1.07,2.87.83,0,0,2.64.27,2.57-1.65,0,0,0-2.34-2-1.78,0,0-.8,1.31-1.25.68A2,2,0,0,1,45,28.41a2.74,2.74,0,0,1,3,2.39s1.23,2.87-2.3,5.47a10.5,10.5,0,0,1-8.27,1.26,19.54,19.54,0,0,1-7.6-4.29s.45,2.89-1.56,2.46c0,0,.29,2.3-1.47,2.66,0,0-.58,1.74,1.26,1.68A1,1,0,0,0,29,39a1,1,0,0,0-.35-.68S29.44,37,30,38.8c0,0,.65,2.47-2.4,2.57,0,0-2.63,0-2.17-3.41,0,0-1.94-.44.64-4.07,0,0-2.49-2.55,1.47-3,0,0-2.46-3.47-2.45-5.39l1.83,1.64S32.62,38.15,40.67,36.08Z"/><path class="cls-1" d="M40.52,39.77l-.49.5s2.69,4.11.49,5.39c0,0-1.35.57-1.35-.85,0,0-.49-.85-1.06.07a2,2,0,0,0,1.7,2.26,2,2,0,0,0,1.3-.26s1.51,1.76,1.51-1.93c0,0,.29-.78.78,1.35,0,0,.71,2.49,2.77.36,0,0,.71.71,1.21.35l-2.2-2.2s-2.91-.85-3-2.84Z"/><path class="cls-1" d="M40,40.28l.49-.5s4.17,2.61,5.4.38c0,0,.54-1.36-.88-1.33,0,0-.86-.48,0-1.07a2,2,0,0,1,2.28,1.68,2,2,0,0,1-.23,1.26s1.81,1.53-1.88,1.6c0,0-.78.3,1.36.76,0,0,2.5.65.42,2.76,0,0,.72.69.38,1.2l-2.25-2.16s-.91-2.89-2.9-2.92Z"/><path class="cls-1" d="M7.62,36.27S8.9,33.5,7,32.79c0,0-2.27-1-2.84.93,0,0-2.63.35-2.63-1.56,0,0-.07-2.35,2-1.85,0,0,.84,1.28,1.27.64a2,2,0,0,0-1.7-2.2A2.75,2.75,0,0,0,.17,31.23S-1,34.14,2.66,36.63a10.49,10.49,0,0,0,8.3,1,19.47,19.47,0,0,0,7.46-4.55s-.36,2.91,1.63,2.41c0,0-.21,2.3,1.56,2.61,0,0,.64,1.72-1.2,1.72a1,1,0,0,1-.64-1.7s-.85-1.21-1.35.57c0,0-.57,2.48,2.48,2.48,0,0,2.63-.07,2.06-3.48,0,0,1.92-.49-.78-4,0,0,2.42-2.63-1.56-2.91,0,0,2.34-3.55,2.27-5.47L21.12,27S15.79,38.08,7.62,36.27Z"/><path class="cls-1" d="M12.28,40.75s2.73-1.37,3.5.52c0,0,1.07,2.24-.83,2.87,0,0-.27,2.64,1.65,2.58,0,0,2.34,0,1.78-2,0,0-1.31-.8-.68-1.25A2,2,0,0,1,20,45.08a2.74,2.74,0,0,1-2.39,3s-2.87,1.23-5.47-2.3a10.55,10.55,0,0,1-1.26-8.27,19.66,19.66,0,0,1,4.29-7.6s-2.89.45-2.46-1.56c0,0-2.3.29-2.66-1.47,0,0-1.74-.58-1.68,1.26A1,1,0,0,0,9.43,29a1,1,0,0,0,.61-.31s1.24.82-.52,1.37c0,0-2.47.65-2.57-2.4,0,0,0-2.63,3.41-2.17,0,0,.44-1.94,4.07.65,0,0,2.55-2.5,3,1.46,0,0,3.48-2.46,5.39-2.45L21.18,27S10.17,32.65,12.28,40.75Z"/><path class="cls-1" d="M8.55,40.6l-.5-.49s-4.11,2.7-5.39.49c0,0-.57-1.34.85-1.34,0,0,.85-.5-.07-1.07a2,2,0,0,0-2.26,1.7,2,2,0,0,0,.26,1.3s-1.77,1.56,1.92,1.56c0,0,.78.29-1.35.78,0,0-2.49.71-.36,2.77,0,0-.71.71-.35,1.21l2.2-2.2s.85-2.91,2.84-3Z"/><path class="cls-1" d="M8,40.08l.51.49S5.93,44.74,8.16,46c0,0,1.36.54,1.33-.88,0,0,.48-.86,1.07,0a2,2,0,0,1-2.94,2S6.09,49,6,45.26c0,0-.3-.78-.76,1.36,0,0-.65,2.5-2.76.42,0,0-.69.72-1.2.38l2.16-2.25s2.89-.91,2.92-2.9Z"/><path class="cls-1" d="M63.62,18.57H58l-.38.94a9.88,9.88,0,0,0-.85,2.65,1.2,1.2,0,0,0,.45,1,1.86,1.86,0,0,0,1.16.34V24H54V23.5a2.28,2.28,0,0,0,1.45-.69,8,8,0,0,0,1.14-2.26,10.6,10.6,0,0,1,.52-1.26L61.45,9.08h.43l4.93,11.73.68,1.55a2.15,2.15,0,0,0,.61.82,2.3,2.3,0,0,0,1.16.37v.51h-5.8v-.51a4.36,4.36,0,0,0,1.44-.15.63.63,0,0,0,.38-.63,6.75,6.75,0,0,0-.5-1.43Zm-.18-.49-2.62-6.3-2.6,6.3Z"/><path class="cls-1" d="M81.19,24.31,72,12.15v9a6.67,6.67,0,0,0,.11,1.48,1.29,1.29,0,0,0,.63.65,3.21,3.21,0,0,0,1.55.3V24H69.46v-.44a3.44,3.44,0,0,0,1.41-.34,1.15,1.15,0,0,0,.58-.59,7.56,7.56,0,0,0,.09-1.5V14.27a8.39,8.39,0,0,0-.14-2,.91.91,0,0,0-.44-.65,3.78,3.78,0,0,0-1.34-.14v-.4h3.83l7.68,10.15V13.47A2.78,2.78,0,0,0,81,12.26a1.18,1.18,0,0,0-.73-.54,3.63,3.63,0,0,0-1.31-.2v-.44h4.7v.44a3.44,3.44,0,0,0-1.29.31,1.23,1.23,0,0,0-.61.6,4.23,4.23,0,0,0-.13,1.18V24.35Z"/><path class="cls-1" d="M84.76,14.16h-.44L84.39,11H97l.06,3.12h-.43A5.14,5.14,0,0,0,96,12.3a1.53,1.53,0,0,0-.83-.69,5.78,5.78,0,0,0-1.5-.13H91.62v9.16a19,19,0,0,0,.07,2,1,1,0,0,0,.38.71,2.14,2.14,0,0,0,1.19.23h.63V24H87.42v-.44h.67a2.12,2.12,0,0,0,1.16-.22,1,1,0,0,0,.41-.65,14.34,14.34,0,0,0,.09-2.07V11.48H87.82a7.92,7.92,0,0,0-1.68.12,1.51,1.51,0,0,0-.81.72A5.4,5.4,0,0,0,84.76,14.16Z"/><path class="cls-1" d="M97.62,17.44a6.23,6.23,0,0,1,2-4.82,7.13,7.13,0,0,1,5-1.82,7.35,7.35,0,0,1,5.07,1.8,6.17,6.17,0,0,1,2,4.91,6.45,6.45,0,0,1-2,4.88,7.9,7.9,0,0,1-10.2,0A6.55,6.55,0,0,1,97.62,17.44Zm2.19.07a7.59,7.59,0,0,0,1.25,4.7,4.51,4.51,0,0,0,3.75,1.57,4.24,4.24,0,0,0,3.46-1.57,9.25,9.25,0,0,0,0-9.32,4.9,4.9,0,0,0-6.92-.31c-.11.1-.21.2-.31.31a7.43,7.43,0,0,0-1.24,4.62Z"/><path class="cls-1" d="M124.8,24.31l-9.18-12.16v9a6.67,6.67,0,0,0,.11,1.48,1.37,1.37,0,0,0,.63.65,3.21,3.21,0,0,0,1.55.3V24h-4.84v-.44a3.44,3.44,0,0,0,1.41-.34,1.15,1.15,0,0,0,.58-.59,7.56,7.56,0,0,0,.09-1.5V14.27a8.39,8.39,0,0,0-.14-2,.91.91,0,0,0-.44-.65,3.78,3.78,0,0,0-1.34-.14v-.4h3.83l7.68,10.15V13.47a2.78,2.78,0,0,0-.17-1.21,1.18,1.18,0,0,0-.73-.54,3.63,3.63,0,0,0-1.31-.2v-.44h4.71v.44a3.44,3.44,0,0,0-1.29.31,1.23,1.23,0,0,0-.61.6,4.23,4.23,0,0,0-.13,1.18V24.35Z"/><path class="cls-1" d="M127.94,11.48v-.4h5.94v.44h-.26a3.33,3.33,0,0,0-1.25.15.85.85,0,0,0-.4.59,12.8,12.8,0,0,0-.1,2.05v6.37a19,19,0,0,0,.07,2,1,1,0,0,0,.38.71,2.14,2.14,0,0,0,1.19.23h.39v.44H128v-.44h.38a2.12,2.12,0,0,0,1.16-.22,1,1,0,0,0,.41-.65,15.92,15.92,0,0,0,.08-2.07V14.31a14.8,14.8,0,0,0-.08-2,.86.86,0,0,0-.39-.62,2.93,2.93,0,0,0-1.28-.17Z"/><path class="cls-1" d="M135.38,17.44a6.23,6.23,0,0,1,2-4.82,7.13,7.13,0,0,1,5-1.82,7.35,7.35,0,0,1,5.07,1.8,6.17,6.17,0,0,1,2,4.91,6.44,6.44,0,0,1-1.95,4.88,7.9,7.9,0,0,1-10.2,0A6.53,6.53,0,0,1,135.38,17.44Zm2.19.07a7.59,7.59,0,0,0,1.25,4.7,4.52,4.52,0,0,0,3.8,1.57,4.24,4.24,0,0,0,3.46-1.57,7.29,7.29,0,0,0,1.28-4.68,7.36,7.36,0,0,0-1.26-4.64,4.9,4.9,0,0,0-6.92-.31c-.11.1-.21.2-.31.31a7.48,7.48,0,0,0-1.25,4.62Z"/><path class="cls-1" d="M167.5,9.25l.12,3.68h-.51a4.46,4.46,0,0,0-.68-2,2.28,2.28,0,0,0-1.1-1,7,7,0,0,0-2-.19h-2.89V16h1.38a2.5,2.5,0,0,0,1.78-.45,2.62,2.62,0,0,0,.45-1.82h.57v5.21h-.54a4.76,4.76,0,0,0-.19-1.5,1.3,1.3,0,0,0-.57-.75,3.5,3.5,0,0,0-1.47-.2h-1.38v3.67a17.39,17.39,0,0,0,.09,2.28,1.16,1.16,0,0,0,.44.8,2.41,2.41,0,0,0,1.37.26h.5V24H156V23.5h.46a2.57,2.57,0,0,0,1.31-.23,1.05,1.05,0,0,0,.47-.75,14.3,14.3,0,0,0,.11-2.36V12.92a13.4,13.4,0,0,0-.11-2.28,1,1,0,0,0-.43-.71,3.43,3.43,0,0,0-1.46-.19h-.26v-.5Z"/><path class="cls-1" d="M168.23,11.48v-.4h5.93v.44h-.27a3.38,3.38,0,0,0-1.26.15.86.86,0,0,0-.39.59,12.8,12.8,0,0,0-.1,2.05v6.37a19,19,0,0,0,.07,2,1,1,0,0,0,.38.71,2.14,2.14,0,0,0,1.19.23h.38v.44h-5.93v-.44h.39a2.12,2.12,0,0,0,1.16-.22.93.93,0,0,0,.4-.65,14.34,14.34,0,0,0,.09-2.07V14.31a13.33,13.33,0,0,0-.09-2,.82.82,0,0,0-.38-.62,2.93,2.93,0,0,0-1.28-.17Z"/><path class="cls-1" d="M183.71,18.47h5.6v.46a2.85,2.85,0,0,0-1.26.19.91.91,0,0,0-.44.62,13.56,13.56,0,0,0-.1,2.11v1.38a2.8,2.8,0,0,0-.41,0,6,6,0,0,0-1.94.45,8.33,8.33,0,0,1-3,.62,6.29,6.29,0,0,1-6.48-6.49,7.38,7.38,0,0,1,1.76-4.88,5.93,5.93,0,0,1,4.78-2.09,5.52,5.52,0,0,1,4.31,1.91,4.24,4.24,0,0,0,.4-1.44h.46v4.33h-.46a5.17,5.17,0,0,0-1.51-3.17,4.27,4.27,0,0,0-3-1.16,4.34,4.34,0,0,0-3.19,1.36c-.9.9-1.36,2.51-1.36,4.82s.44,3.94,1.31,4.9a4.25,4.25,0,0,0,3.26,1.44,3.86,3.86,0,0,0,1.8-.41,2.28,2.28,0,0,0,1.12-1,3.27,3.27,0,0,0,.29-1.48,4.07,4.07,0,0,0-.14-1.39.78.78,0,0,0-.42-.47A3.15,3.15,0,0,0,184,19h-.3Z"/><path class="cls-1" d="M200.13,11.08h4.34v.44a2.4,2.4,0,0,0-1.29.38,1.37,1.37,0,0,0-.52.75,9.44,9.44,0,0,0-.1,1.59v4.32a16.89,16.89,0,0,1-.12,2.46,3.46,3.46,0,0,1-.75,1.58A4.16,4.16,0,0,1,200,23.84a6.89,6.89,0,0,1-2.58.46,6.64,6.64,0,0,1-2.94-.59,3.78,3.78,0,0,1-1.71-1.53,5.27,5.27,0,0,1-.51-2.5V14.31a13.33,13.33,0,0,0-.09-2,.86.86,0,0,0-.39-.62,2.88,2.88,0,0,0-1.27-.17h-.3v-.44h5.92v.44h-.25a3.38,3.38,0,0,0-1.26.15.91.91,0,0,0-.4.59,14.08,14.08,0,0,0-.1,2.05V18.4a15.87,15.87,0,0,0,.2,3A2.64,2.64,0,0,0,195.38,23a4,4,0,0,0,2.42.66,5.16,5.16,0,0,0,2.16-.44,3.5,3.5,0,0,0,1.44-1.11A3,3,0,0,0,202,20.7a15,15,0,0,0,.11-2.22v-4.4a6.13,6.13,0,0,0-.13-1.54,1.2,1.2,0,0,0-.53-.7,2.81,2.81,0,0,0-1.31-.31Z"/><path class="cls-1" d="M216.08,20h.46l-.28,4H205.51v-.44h.27a2,2,0,0,0,1.25-.26,1.14,1.14,0,0,0,.36-.66,14.8,14.8,0,0,0,.08-2V14.25a12.73,12.73,0,0,0-.09-1.95.9.9,0,0,0-.37-.66,2.58,2.58,0,0,0-1.23-.18v-.38h9.28l.3,3.23h-.45a4.81,4.81,0,0,0-.75-1.93,1.92,1.92,0,0,0-1.06-.72,10.3,10.3,0,0,0-2-.14h-1.8V17h1.38A3.74,3.74,0,0,0,212,16.8a.79.79,0,0,0,.49-.49,4,4,0,0,0,.12-1.29h.45v4.44h-.45a3.58,3.58,0,0,0-.18-1.45.9.9,0,0,0-.53-.48,4.63,4.63,0,0,0-1.18-.11H209.3V20.5a6.73,6.73,0,0,0,.3,2.71c.2.27.73.41,1.6.41h1a4.41,4.41,0,0,0,1.69-.27,2.94,2.94,0,0,0,1.26-1.08A6.12,6.12,0,0,0,216.08,20Z"/><path class="cls-1" d="M231.4,24h-3.5a16.3,16.3,0,0,1-2.84-3.41c-.41-.59-.83-1.15-1.27-1.69a6.63,6.63,0,0,0-.91-1,1.4,1.4,0,0,0-.78-.17h-.48v2.88a16.64,16.64,0,0,0,.08,2,1,1,0,0,0,.38.71,2.14,2.14,0,0,0,1.19.23h.62V24h-6.27v-.44H218a2.12,2.12,0,0,0,1.16-.22,1,1,0,0,0,.4-.65,14.34,14.34,0,0,0,.09-2.07V14.26a13.33,13.33,0,0,0-.09-2,.82.82,0,0,0-.38-.62,2.93,2.93,0,0,0-1.28-.17h-.22v-.39l1.85-.1c1.24-.06,2.22-.09,3-.09a10.85,10.85,0,0,1,3,.35,4,4,0,0,1,1.88,1.13,2.66,2.66,0,0,1,.72,1.87,2.87,2.87,0,0,1-.94,2.18,4.64,4.64,0,0,1-2.75,1.12,10.4,10.4,0,0,1,2.62,2.83A12.44,12.44,0,0,0,229.37,23a3.52,3.52,0,0,0,2,.66Zm-9.82-6.7,1.49-.06a6,6,0,0,0,1.33-.21,2.28,2.28,0,0,0,.91-.51,2.12,2.12,0,0,0,.55-.86,3.48,3.48,0,0,0,.2-1.32,3.2,3.2,0,0,0-.68-2.19c-.46-.55-1.45-.83-3-.83h-.82Z"/><path class="cls-1" d="M230.81,17.44a6.23,6.23,0,0,1,2-4.82,7.13,7.13,0,0,1,5-1.82,7.35,7.35,0,0,1,5.07,1.8,6.21,6.21,0,0,1,2,4.91,6.44,6.44,0,0,1-1.95,4.88,7.9,7.9,0,0,1-10.2,0A6.53,6.53,0,0,1,230.81,17.44Zm2.19.07a7.59,7.59,0,0,0,1.25,4.7A4.53,4.53,0,0,0,238,23.78a4.26,4.26,0,0,0,3.47-1.57,7.34,7.34,0,0,0,1.27-4.68,7.43,7.43,0,0,0-1.25-4.64,4.92,4.92,0,0,0-7-.29l-.29.29A7.48,7.48,0,0,0,233,17.51Z"/><path class="cls-1" d="M253.3,19.23h-4.93l-.34.82a8.4,8.4,0,0,0-.74,2.34,1,1,0,0,0,.39.88,1.63,1.63,0,0,0,1,.31V24h-3.85v-.44a2.11,2.11,0,0,0,1.28-.61,7.21,7.21,0,0,0,1-2,11.68,11.68,0,0,1,.46-1.11l3.77-9h.38l4.33,10.31.6,1.36a1.79,1.79,0,0,0,.54.73,2,2,0,0,0,1,.33V24h-5.11v-.44a3.88,3.88,0,0,0,1.27-.14.54.54,0,0,0,.33-.55,5.09,5.09,0,0,0-.44-1.26Zm-.17-.43-2.29-5.53-2.29,5.53Z"/><path class="cls-1" d="M72.47,37.5h.31l-.19,2.69H65.43v-.3h.19a1.3,1.3,0,0,0,.84-.17.73.73,0,0,0,.23-.43,7.63,7.63,0,0,0,.06-1.35V33.7a7.08,7.08,0,0,0-.06-1.3.56.56,0,0,0-.25-.44,1.9,1.9,0,0,0-.82-.12v-.3H71.8L72,33.7h-.3a3.19,3.19,0,0,0-.5-1.29,1.27,1.27,0,0,0-.7-.48,7.15,7.15,0,0,0-1.31-.09H68v3.62h.92a2.59,2.59,0,0,0,.88-.1.59.59,0,0,0,.33-.33,2.76,2.76,0,0,0,.08-.86h.3v3h-.3a2.42,2.42,0,0,0-.12-1,.61.61,0,0,0-.35-.32,3,3,0,0,0-.79-.07h-1v2a4.39,4.39,0,0,0,.2,1.8c.13.18.48.27,1.06.27h.64A2.88,2.88,0,0,0,71,39.73,2,2,0,0,0,71.8,39,4,4,0,0,0,72.47,37.5Z"/><path class="cls-1" d="M79.72,37.62h.22V40h-.22a1.72,1.72,0,0,0-.33-.73,3,3,0,0,1-2.31,1,3.23,3.23,0,0,1-3.37-3.42A4.35,4.35,0,0,1,74.15,35a3,3,0,0,1,1.21-1.34,3.45,3.45,0,0,1,1.71-.43,3.15,3.15,0,0,1,1.39.32,2.78,2.78,0,0,1,.93.7,2.54,2.54,0,0,0,.26-.89h.22l.07,2.59h-.22A2.9,2.9,0,0,0,78.79,34a2.56,2.56,0,0,0-1.58-.54,2,2,0,0,0-1.71.87,4.31,4.31,0,0,0-.63,2.5,3.57,3.57,0,0,0,.69,2.36,2.18,2.18,0,0,0,1.72.83,2.58,2.58,0,0,0,1.13-.27,1.91,1.91,0,0,0,.91-.91A3.2,3.2,0,0,0,79.72,37.62Z"/><path class="cls-1" d="M81.21,40.08V37.87h.26c.28,1.44,1,2.16,2,2.16a1.45,1.45,0,0,0,1.12-.42,1.24,1.24,0,0,0,.4-.92,1.17,1.17,0,0,0-.35-.86,4,4,0,0,0-1.27-.74,9.69,9.69,0,0,1-1.25-.62,2,2,0,0,1-.65-.69,1.76,1.76,0,0,1-.24-.9,1.65,1.65,0,0,1,.51-1.22A1.77,1.77,0,0,1,83,33.17a2.52,2.52,0,0,1,.82.14,2,2,0,0,1,.78.59,1.06,1.06,0,0,0,.27-.6h.22v1.79H84.9a2.46,2.46,0,0,0-.68-1.23,1.63,1.63,0,0,0-1.13-.45,1.13,1.13,0,0,0-.9.33,1.1,1.1,0,0,0,.07,1.53,5.21,5.21,0,0,0,1.36.81c.59.27,1,.48,1.29.64a1.76,1.76,0,0,1,.64.66,2.06,2.06,0,0,1-.34,2.43,2.19,2.19,0,0,1-1.57.55,2.41,2.41,0,0,1-1.88-.86,1.74,1.74,0,0,0-.24.67Z"/><path class="cls-1" d="M86.72,35h-.24V33.34h6.65V35h-.21a2.73,2.73,0,0,0-.32-1,.81.81,0,0,0-.44-.37,3,3,0,0,0-.79-.07h-1.1v4.83a9.37,9.37,0,0,0,0,1.06.53.53,0,0,0,.2.37,1.16,1.16,0,0,0,.63.13h.33v.23H88v-.23h.35a1.07,1.07,0,0,0,.61-.12.49.49,0,0,0,.22-.34,6.73,6.73,0,0,0,0-1.1V33.54h-1a4.49,4.49,0,0,0-.89.06.8.8,0,0,0-.43.38A3.08,3.08,0,0,0,86.72,35Z"/><path class="cls-1" d="M97,37.66h-2.6l-.18.44a4.41,4.41,0,0,0-.39,1.23.56.56,0,0,0,.21.47.85.85,0,0,0,.53.16v.23h-2V40a1,1,0,0,0,.67-.33,3.49,3.49,0,0,0,.54-1.05l.24-.59,2-4.75h.2l2.29,5.44.31.72a1.1,1.1,0,0,0,.29.38,1.16,1.16,0,0,0,.54.18v.23H97V40a1.87,1.87,0,0,0,.67-.08.26.26,0,0,0,.18-.29,2.61,2.61,0,0,0-.24-.66ZM97,37.43l-1.21-2.92-1.21,2.92Z"/><path class="cls-1" d="M100.18,40.08V37.87h.25c.28,1.44,1,2.16,2,2.16a1.45,1.45,0,0,0,1.12-.42,1.24,1.24,0,0,0,.4-.92,1.17,1.17,0,0,0-.35-.86,4,4,0,0,0-1.27-.74,9.56,9.56,0,0,1-1.24-.62,2,2,0,0,1-.66-.69,1.85,1.85,0,0,1-.23-.9,1.64,1.64,0,0,1,.5-1.22,1.77,1.77,0,0,1,1.29-.49,2.52,2.52,0,0,1,.82.14,2.11,2.11,0,0,1,.79.59,1.05,1.05,0,0,0,.26-.6h.22v1.79h-.22a2.35,2.35,0,0,0-.68-1.23,1.63,1.63,0,0,0-1.13-.45,1.13,1.13,0,0,0-.9.33,1.08,1.08,0,0,0,.08,1.53,5,5,0,0,0,1.28.74c.59.27,1,.48,1.28.64a1.79,1.79,0,0,1,.65.66,2,2,0,0,1,.24,1,1.85,1.85,0,0,1-.59,1.43,2.16,2.16,0,0,1-1.56.55,2.36,2.36,0,0,1-1.88-.86,1.75,1.75,0,0,0-.25.67Z"/><path class="cls-1" d="M109.08,37.19l1.35-2.27a1.85,1.85,0,0,0,.33-.79.51.51,0,0,0-.18-.38.83.83,0,0,0-.63-.18v-.23h2.24v.23a1.33,1.33,0,0,0-.75.34,6.57,6.57,0,0,0-.73,1l-1.54,2.56v.91a7,7,0,0,0,.06,1.12.48.48,0,0,0,.23.34,1.59,1.59,0,0,0,.68.1v.23h-2.92v-.23h.11a1.07,1.07,0,0,0,.61-.12.48.48,0,0,0,.21-.34,6.7,6.7,0,0,0,0-1.1v-.84l-1.71-2.8a6.84,6.84,0,0,0-.69-1,.92.92,0,0,0-.62-.17v-.23H108v.23c-.52,0-.78.12-.78.35a1.64,1.64,0,0,0,.26.57Z"/><path class="cls-1" d="M115.31,36.72a3.28,3.28,0,0,1,1.06-2.55,4,4,0,0,1,5.32,0,3.27,3.27,0,0,1,1.08,2.59,3.41,3.41,0,0,1-1,2.58,4.19,4.19,0,0,1-5.39,0A3.48,3.48,0,0,1,115.31,36.72Zm1.16,0a4,4,0,0,0,.66,2.48,2.34,2.34,0,0,0,2,.83A2.22,2.22,0,0,0,121,39.2a3.8,3.8,0,0,0,.67-2.47,4,4,0,0,0-.66-2.45,2.58,2.58,0,0,0-3.81,0,4,4,0,0,0-.69,2.49Z"/><path class="cls-1" d="M128.91,33.34,129,35h-.24a1.91,1.91,0,0,0-.31-.92,1.06,1.06,0,0,0-.52-.46,3.36,3.36,0,0,0-.9-.09h-1.37v2.9h.64a1.16,1.16,0,0,0,.83-.21,1.19,1.19,0,0,0,.2-.84h.33v2.42h-.26a2.35,2.35,0,0,0-.08-.7.59.59,0,0,0-.27-.35,1.56,1.56,0,0,0-.68-.09h-.71v1.7a9.37,9.37,0,0,0,0,1.06.58.58,0,0,0,.21.37,1.16,1.16,0,0,0,.63.13h.23v.23h-3.07V40h.21a1.07,1.07,0,0,0,.61-.12.49.49,0,0,0,.22-.34,6.7,6.7,0,0,0,0-1.1V35.08a6.16,6.16,0,0,0,0-1,.47.47,0,0,0-.2-.33,1.56,1.56,0,0,0-.68-.09h-.16v-.23Z"/><path class="cls-1" d="M138.68,31.54l.07,2.16h-.3a2.77,2.77,0,0,0-.4-1.17,1.36,1.36,0,0,0-.65-.58,4,4,0,0,0-1.14-.11h-1.64V35.5h.81a1.53,1.53,0,0,0,1-.26,1.54,1.54,0,0,0,.26-1.06H137v3h-.32a2.85,2.85,0,0,0-.11-.87.77.77,0,0,0-.33-.44,2.07,2.07,0,0,0-.86-.12h-.77V37.9a11.83,11.83,0,0,0,0,1.33.74.74,0,0,0,.26.47,1.49,1.49,0,0,0,.8.15H136v.3h-4v-.3h.26a1.36,1.36,0,0,0,.77-.14.64.64,0,0,0,.28-.43,8,8,0,0,0,.06-1.38V33.66a7.41,7.41,0,0,0-.06-1.33.58.58,0,0,0-.26-.42,1.89,1.89,0,0,0-.85-.11h-.15v-.3Z"/><path class="cls-1" d="M143.27,37.66h-2.6l-.18.44a4.41,4.41,0,0,0-.39,1.23.56.56,0,0,0,.21.47.92.92,0,0,0,.53.16v.23h-2V40a1.1,1.1,0,0,0,.68-.33,3.84,3.84,0,0,0,.53-1.05l.24-.59,2-4.75h.2l2.29,5.44.31.72a1.1,1.1,0,0,0,.29.38,1.16,1.16,0,0,0,.54.18v.23h-2.7V40a1.87,1.87,0,0,0,.67-.08.26.26,0,0,0,.18-.29,3,3,0,0,0-.23-.66Zm-.09-.23L142,34.51l-1.21,2.92Z"/><path class="cls-1" d="M146.41,40.08V37.87h.21c.29,1.44,1,2.16,2,2.16a1.48,1.48,0,0,0,1.12-.42,1.27,1.27,0,0,0,.39-.92,1.12,1.12,0,0,0-.35-.86,4,4,0,0,0-1.27-.74,9.56,9.56,0,0,1-1.24-.62,2,2,0,0,1-.66-.69,1.91,1.91,0,0,1-.23-.9,1.65,1.65,0,0,1,.51-1.22,1.75,1.75,0,0,1,1.28-.49,2.52,2.52,0,0,1,.82.14,2,2,0,0,1,.79.59,1.05,1.05,0,0,0,.26-.6h.22v1.79H150a2.35,2.35,0,0,0-.68-1.23,1.63,1.63,0,0,0-1.13-.45,1.11,1.11,0,0,0-.89.33,1.13,1.13,0,0,0-.29.72,1.08,1.08,0,0,0,.36.81,5,5,0,0,0,1.28.74c.59.27,1,.48,1.28.64a1.79,1.79,0,0,1,.65.66,2,2,0,0,1,.24,1,1.85,1.85,0,0,1-.59,1.43,2.16,2.16,0,0,1-1.56.55,2.37,2.37,0,0,1-1.88-.86,1.75,1.75,0,0,0-.25.67Z"/><path class="cls-1" d="M157.35,36.75h-3.58V38.4a9.37,9.37,0,0,0,0,1.06.58.58,0,0,0,.21.37,1.12,1.12,0,0,0,.62.13h.18v.23H151.7V40h.17a1.07,1.07,0,0,0,.61-.12.49.49,0,0,0,.22-.34,6.73,6.73,0,0,0,0-1.1V35.08a6.14,6.14,0,0,0,0-1,.47.47,0,0,0-.2-.33,1.56,1.56,0,0,0-.68-.09h-.12v-.23h3.08v.23h-.13a1.79,1.79,0,0,0-.65.08.43.43,0,0,0-.21.31,6.52,6.52,0,0,0-.06,1.08v1.36h3.58V35.08a6.14,6.14,0,0,0,0-1,.47.47,0,0,0-.2-.33,1.56,1.56,0,0,0-.68-.09h-.18v-.23h3.12v.23h-.1a1.93,1.93,0,0,0-.67.08.49.49,0,0,0-.21.31,7.81,7.81,0,0,0,0,1.08v3.36a9.37,9.37,0,0,0,0,1.06.53.53,0,0,0,.2.37,1.18,1.18,0,0,0,.63.13h.16v.23h-3.12V40h.24a1,1,0,0,0,.6-.12.49.49,0,0,0,.22-.34,6.73,6.73,0,0,0,0-1.1Z"/><path class="cls-1" d="M160,33.57v-.23h3.14v.23H163a1.67,1.67,0,0,0-.66.08.43.43,0,0,0-.21.31A6.52,6.52,0,0,0,162,35V38.4a9.37,9.37,0,0,0,0,1.06.59.59,0,0,0,.2.37,1.16,1.16,0,0,0,.63.13h.21v.23h-3.14V40h.21a1,1,0,0,0,.6-.12.49.49,0,0,0,.22-.34,6.73,6.73,0,0,0,0-1.1V35.08a6.14,6.14,0,0,0,0-1,.47.47,0,0,0-.2-.33,1.56,1.56,0,0,0-.68-.09Z"/><path class="cls-1" d="M163.91,36.72A3.28,3.28,0,0,1,165,34.17a4,4,0,0,1,5.32,0,3.27,3.27,0,0,1,1.08,2.59,3.41,3.41,0,0,1-1,2.58,4.17,4.17,0,0,1-5.38,0A3.45,3.45,0,0,1,163.91,36.72Zm1.16,0a4,4,0,0,0,.66,2.48,2.39,2.39,0,0,0,2,.83,2.22,2.22,0,0,0,1.83-.83,3.8,3.8,0,0,0,.67-2.47,4,4,0,0,0-.66-2.45,2.57,2.57,0,0,0-3.64-.16l-.17.16a3.93,3.93,0,0,0-.69,2.47Z"/><path class="cls-1" d="M178.26,40.34l-4.84-6.42v4.76a3.29,3.29,0,0,0,.06.77.7.7,0,0,0,.33.35,1.67,1.67,0,0,0,.82.16v.23h-2.56V40a1.92,1.92,0,0,0,.75-.18.54.54,0,0,0,.3-.31,3.5,3.5,0,0,0,0-.79v-3.6a4.64,4.64,0,0,0-.07-1,.52.52,0,0,0-.23-.35,2.12,2.12,0,0,0-.71-.07v-.23h2l4.05,5.36v-4.1a1.41,1.41,0,0,0-.09-.64.69.69,0,0,0-.38-.29,2,2,0,0,0-.69-.1v-.23h2.48v.23a1.79,1.79,0,0,0-.68.17.61.61,0,0,0-.32.31,1.85,1.85,0,0,0-.07.62v5.67Z"/><path class="cls-1" d="M186.7,36.08h2.16v.23a1.9,1.9,0,0,0-.72.4,3,3,0,0,0-.62,1.06,3.94,3.94,0,0,1-.51,1,4.29,4.29,0,0,0,.85,1,1.15,1.15,0,0,0,.66.21.8.8,0,0,0,.73-.45h.24a1.17,1.17,0,0,1-.46.67,1.27,1.27,0,0,1-.8.25,2.16,2.16,0,0,1-1.73-1,2.53,2.53,0,0,1-1.88,1,1.75,1.75,0,0,1-.71-.13,2.35,2.35,0,0,1-.62-.38,2,2,0,0,1-.44-.6,1.67,1.67,0,0,1-.15-.76,1.73,1.73,0,0,1,.34-1.07,6.61,6.61,0,0,1,1.33-1.09,2.61,2.61,0,0,1-.59-1.49,1.3,1.3,0,0,1,.4-.93,1.4,1.4,0,0,1,1-.42,1.69,1.69,0,0,1,1,.31,1,1,0,0,1,.44.81c0,.52-.48,1-1.45,1.51l.87,1.2c.28.39.56.77.82,1.15a2.93,2.93,0,0,0,.46-.83,1.84,1.84,0,0,0,.17-.68c0-.38-.27-.61-.79-.67Zm-2.18.48a2.56,2.56,0,0,0-.81.76,1.46,1.46,0,0,0-.29.83,1.74,1.74,0,0,0,.5,1.18,1.5,1.5,0,0,0,1.13.55,1.71,1.71,0,0,0,1.3-.69c-.36-.55-.69-1-1-1.47s-.57-.85-.83-1.19ZM185,36c.68-.4,1-.82,1-1.28a1.15,1.15,0,0,0,0-.37.85.85,0,0,0-.17-.29.7.7,0,0,0-.26-.19.88.88,0,0,0-.33-.06.78.78,0,0,0-.59.24.94.94,0,0,0-.22.6,2.79,2.79,0,0,0,.57,1.32Z"/><path class="cls-1" d="M195.05,36.08V37.9c0,.44,0,.89,0,1.33a.66.66,0,0,0,.26.47,1.45,1.45,0,0,0,.79.15h.28v.3h-4v-.3h.23a1.36,1.36,0,0,0,.77-.14.61.61,0,0,0,.27-.43,8,8,0,0,0,.06-1.38V33.66a7.41,7.41,0,0,0-.06-1.33.6.6,0,0,0-.25-.42,1.93,1.93,0,0,0-.86-.11h-.16v-.3h3.09a7.88,7.88,0,0,1,2.06.21,2.42,2.42,0,0,1,1.18.75,2,2,0,0,1,.47,1.35,2.38,2.38,0,0,1-.32,1.25,1.94,1.94,0,0,1-.9.82,5.22,5.22,0,0,1-2.08.28Zm0-.32h.62a4,4,0,0,0,1.2-.15,1.42,1.42,0,0,0,.77-.63,2.14,2.14,0,0,0,.3-1.18,2.1,2.1,0,0,0-.52-1.57,2.43,2.43,0,0,0-1.71-.5q-.33,0-.66,0Z"/><path class="cls-1" d="M205.56,38.17l-.06,2h-5.82v-.23h.21a1,1,0,0,0,.6-.12.49.49,0,0,0,.22-.34,6.73,6.73,0,0,0,0-1.1v-3.3a6.14,6.14,0,0,0,0-1,.47.47,0,0,0-.2-.33,1.52,1.52,0,0,0-.67-.09h-.16v-.23H203v.23h-.3a1.67,1.67,0,0,0-.66.08.43.43,0,0,0-.21.31,6.51,6.51,0,0,0-.05,1.08v3.59a7.21,7.21,0,0,0,0,.93.44.44,0,0,0,.22.29,1.85,1.85,0,0,0,.77.11h.52a2.65,2.65,0,0,0,.93-.12,1.26,1.26,0,0,0,.59-.48,4,4,0,0,0,.5-1.19Z"/><path class="cls-1" d="M211.55,38.08h.24l-.15,2.13H206V40h.14a1,1,0,0,0,.66-.14.61.61,0,0,0,.19-.35,6.37,6.37,0,0,0,0-1.07V35.08a5.57,5.57,0,0,0,0-1,.44.44,0,0,0-.2-.34,1.31,1.31,0,0,0-.65-.1v-.23H211l.16,1.7h-.24a2.68,2.68,0,0,0-.39-1,1,1,0,0,0-.56-.38,4.77,4.77,0,0,0-1-.08H208v2.87h.72a2,2,0,0,0,.7-.08.49.49,0,0,0,.27-.26,2.57,2.57,0,0,0,.06-.68H210v2.34h-.24a1.77,1.77,0,0,0-.1-.76.45.45,0,0,0-.28-.26,3.21,3.21,0,0,0-.62,0H208v1.62a3.84,3.84,0,0,0,.15,1.43c.11.14.39.22.85.22h.51a2.41,2.41,0,0,0,.89-.14,1.61,1.61,0,0,0,.66-.58A3.13,3.13,0,0,0,211.55,38.08Z"/><path class="cls-1" d="M216.62,37.66H214l-.17.44a4.43,4.43,0,0,0-.4,1.23.56.56,0,0,0,.21.47.88.88,0,0,0,.54.16v.23h-2V40a1.1,1.1,0,0,0,.68-.33,3.49,3.49,0,0,0,.54-1.05,6.07,6.07,0,0,1,.24-.59l2-4.75h.2l2.29,5.44.31.72a1,1,0,0,0,.28.38,1.16,1.16,0,0,0,.54.18v.23h-2.69V40a2.12,2.12,0,0,0,.67-.08.27.27,0,0,0,.17-.29,2.25,2.25,0,0,0-.23-.66Zm-.09-.23-1.21-2.92-1.21,2.92Z"/><path class="cls-1" d="M219.71,40.08V37.87H220c.28,1.44,1,2.16,2,2.16a1.45,1.45,0,0,0,1.12-.42,1.24,1.24,0,0,0,.4-.92,1.17,1.17,0,0,0-.35-.86,4,4,0,0,0-1.27-.74,9.69,9.69,0,0,1-1.25-.62,2,2,0,0,1-.65-.69,1.76,1.76,0,0,1-.24-.9,1.65,1.65,0,0,1,.51-1.22,1.77,1.77,0,0,1,1.29-.49,2.52,2.52,0,0,1,.82.14,2.15,2.15,0,0,1,.78.59,1.06,1.06,0,0,0,.27-.6h.22v1.79h-.22a2.46,2.46,0,0,0-.68-1.23,1.63,1.63,0,0,0-1.13-.45,1.13,1.13,0,0,0-.9.33,1.07,1.07,0,0,0-.28.72,1,1,0,0,0,.35.81A5,5,0,0,0,222,36c.59.27,1,.48,1.29.64a1.76,1.76,0,0,1,.64.66,2,2,0,0,1,.25,1,1.85,1.85,0,0,1-.59,1.43,2.19,2.19,0,0,1-1.57.55,2.37,2.37,0,0,1-1.88-.86,1.74,1.74,0,0,0-.24.67Z"/><path class="cls-1" d="M230.19,33.34h2.29v.23a1.28,1.28,0,0,0-.68.2.75.75,0,0,0-.28.39,6,6,0,0,0,0,.85v2.28a8.1,8.1,0,0,1-.07,1.3,1.64,1.64,0,0,1-.39.83,2.24,2.24,0,0,1-.92.65,4,4,0,0,1-2.91-.07,2.08,2.08,0,0,1-.91-.8,2.84,2.84,0,0,1-.27-1.32v-2.8a6.16,6.16,0,0,0-.05-1,.47.47,0,0,0-.2-.33,1.56,1.56,0,0,0-.68-.09H225v-.23h3.12v.23H228a1.67,1.67,0,0,0-.66.08.43.43,0,0,0-.21.31,6.52,6.52,0,0,0-.06,1.08v2.16a8.45,8.45,0,0,0,.11,1.59,1.35,1.35,0,0,0,.58.82A2.1,2.1,0,0,0,229,40a2.59,2.59,0,0,0,1.14-.24,1.85,1.85,0,0,0,.76-.59,1.6,1.6,0,0,0,.31-.72,9.16,9.16,0,0,0,0-1.17V35a3.78,3.78,0,0,0-.06-.82.65.65,0,0,0-.29-.36,1.43,1.43,0,0,0-.68-.17Z"/><path class="cls-1" d="M240.22,40.19h-1.84a8.12,8.12,0,0,1-1.5-1.8c-.22-.31-.44-.61-.68-.89a3,3,0,0,0-.48-.52.62.62,0,0,0-.4-.1H235V38.4a9.37,9.37,0,0,0,0,1.06.57.57,0,0,0,.2.37,1.16,1.16,0,0,0,.63.13h.33v.23h-3.28V40h.22a1.07,1.07,0,0,0,.61-.12.49.49,0,0,0,.22-.34,6.73,6.73,0,0,0,0-1.1V35.08a6.14,6.14,0,0,0,0-1,.42.42,0,0,0-.21-.33,1.52,1.52,0,0,0-.67-.09H233v-.23h1c.65,0,1.17-.05,1.56-.05a6.06,6.06,0,0,1,1.59.18,2.06,2.06,0,0,1,1,.6,1.34,1.34,0,0,1,.38,1,1.52,1.52,0,0,1-.49,1.15,2.52,2.52,0,0,1-1.46.59,5.2,5.2,0,0,1,1.39,1.49,6.92,6.92,0,0,0,1.22,1.37,1.91,1.91,0,0,0,1.05.35ZM235,36.65h.79a2.69,2.69,0,0,0,.7-.11,1.09,1.09,0,0,0,.48-.27,1.13,1.13,0,0,0,.29-.45,1.84,1.84,0,0,0,.11-.7,1.73,1.73,0,0,0-.36-1.16,2.07,2.07,0,0,0-1.58-.43H235Z"/><path class="cls-1" d="M246.15,38.08h.24l-.15,2.13h-5.62V40h.14a1,1,0,0,0,.66-.14.61.61,0,0,0,.19-.35,6.37,6.37,0,0,0,0-1.07V35.08a5.57,5.57,0,0,0,0-1,.44.44,0,0,0-.2-.34,1.31,1.31,0,0,0-.65-.1v-.23h4.86l.16,1.7h-.24a2.68,2.68,0,0,0-.39-1,1,1,0,0,0-.56-.38,4.77,4.77,0,0,0-1-.08h-1v2.87h.72a2,2,0,0,0,.7-.08.49.49,0,0,0,.27-.26,2.57,2.57,0,0,0,.06-.68h.25v2.34h-.24a1.77,1.77,0,0,0-.1-.76.45.45,0,0,0-.28-.26,3.21,3.21,0,0,0-.62,0h-.76v1.62a3.84,3.84,0,0,0,.15,1.43c.11.14.39.22.85.22h.51A2.41,2.41,0,0,0,245,40a1.61,1.61,0,0,0,.66-.58A3.14,3.14,0,0,0,246.15,38.08Z"/></svg>