<svg id="Capa_1" data-name="Capa 1" xmlns="http://www.w3.org/2000/svg" viewBox="0 0 204.16 263.19"><defs><style>.cls-1{fill:#cecece;}</style></defs><path class="cls-1" d="M60.72,45.89s9.44,4.36,11.87-2.15c0,0,3.4-7.77-3.14-9.68,0,0-1.23-9,5.32-9,0,0,8-.23,6.3,6.82,0,0-4.36,2.87-2.18,4.33a6.81,6.81,0,0,0,7.5-5.79,9.37,9.37,0,0,0-8.49-9.92S68,16.64,59.53,29a35.81,35.81,0,0,0-3.41,28.33A66.74,66.74,0,0,0,71.63,82.74s-9.92-1.16-8.25,5.66c0,0-7.84-.72-8.86,5.32,0,0-5.9,2.18-5.9-4.13a3.41,3.41,0,0,1,5.83-2.18s4.09-2.9-1.94-4.57c0,0-8.49-1.94-8.49,8.46,0,0,.24,9,11.86,7,0,0,1.71,6.54,13.64-2.66,0,0,9,8.22,9.92-5.32,0,0,12.1,8,18.64,7.74l-5.65-6.27S54.45,73.74,60.72,45.89Z"/><path class="cls-1" d="M45.48,61.77s4.67,9.28-1.8,11.94c0,0-7.64,3.61-9.79-2.83,0,0-9-.92-8.76,5.59,0,0,0,8,7,6.07,0,0,2.73-4.44,4.26-2.32a6.8,6.8,0,0,1-5.55,7.7A9.34,9.34,0,0,1,20.6,79.77S16.44,70,28.51,61.13A35.8,35.8,0,0,1,56.7,56.8,66.94,66.94,0,0,1,82.61,71.46S81.07,61.57,87.89,63c0,0-1-7.81,5-9,0,0,2-6-4.33-5.76a3.41,3.41,0,0,0-3.09,3.7,3.45,3.45,0,0,0,1.28,2.37S84,58.5,82.13,52.5c0,0-2.18-8.38,8.22-8.72,0,0,8.93,0,7.39,11.62,0,0,6.58,1.47-2.21,13.87,0,0,8.52,8.7-5,10.23,0,0,8.38,11.83,8.35,18.38l-6.41-6.07S73.16,54.58,45.48,61.77Z"/><path class="cls-1" d="M45.89,49.06l1.71-1.71s-9.21-14-1.71-18.4c0,0,4.6-1.91,4.6,2.93,0,0,1.71,2.9,3.62-.24a6.83,6.83,0,0,0-10.23-6.82s-5.32-6.07-5.32,6.51c0,0-1,2.7-2.66-4.57,0,0-2.42-8.48-9.44-1.22,0,0-2.42-2.42-4.12-1.2l7.53,7.5s9.92,2.9,10.23,9.69Z"/><path class="cls-1" d="M47.67,47.29,46,49s-14.25-8.9-18.44-1.3c0,0-1.84,4.64,3,4.53,0,0,2.93,1.64,0,3.62a6.82,6.82,0,0,1-7-10S17.46,40.67,30,40.4c0,0,2.63-1-4.67-2.56,0,0-8.52-2.25-1.4-9.41,0,0-2.49-2.38-1.29-4.09l7.63,7.33s3.14,9.89,9.92,10Z"/><path class="cls-1" d="M158.12,61.13S153.75,70.57,160.3,73c0,0,7.74,3.41,9.68-3.14,0,0,8.93-1.22,8.93,5.32,0,0,.24,8-6.82,6.31,0,0-2.86-4.37-4.33-2.18a6.83,6.83,0,0,0,5.8,7.5,9.37,9.37,0,0,0,9.95-8.63s3.89-9.92-8.45-18.37a35.76,35.76,0,0,0-28.33-3.41,66.62,66.62,0,0,0-25.4,15.51s1.2-9.92-5.59-8.25c0,0,.75-7.84-5.32-8.86,0,0-2.18-5.9,4.13-5.9a3.41,3.41,0,0,1,2.18,5.83s2.9,4.09,4.6-1.95c0,0,1.91-8.48-8.49-8.48,0,0-9,.27-7,11.86,0,0-6.54,1.7,2.66,13.81,0,0-8.21,9,5.32,9.92,0,0-8,12.1-7.74,18.64l6.07-5.83S130.26,54.68,158.12,61.13Z"/><path class="cls-1" d="M142.23,45.72S133,50.39,130.3,43.91c0,0-3.61-7.6,2.83-9.75,0,0,.92-9-5.59-8.79,0,0-8,0-6.07,6.81,0,0,4.43,2.73,2.32,4.27a6.83,6.83,0,0,1-7.71-5.56,9.35,9.35,0,0,1,8.15-10.23s9.78-4.19,18.65,7.88a35.71,35.71,0,0,1,4.33,28.19,66.94,66.94,0,0,1-14.66,25.91s9.88-1.54,8.42,5.28c0,0,7.81-1,9,5,0,0,6,2,5.76-4.3a3.4,3.4,0,0,0-5.89-2s-4.2-2.76,1.8-4.64c0,0,8.39-2.21,8.73,8.19,0,0,0,9-11.62,7.39,0,0-1.47,6.58-13.88-2.21,0,0-8.69,8.52-10.23-5,0,0-11.83,8.38-18.37,8.35l5.62-6.24S149.42,73.33,142.23,45.72Z"/><path class="cls-1" d="M155,46.2l1.7,1.7s14-9.2,18.41-1.7c0,0,1.91,4.6-2.93,4.6,0,0-2.9,1.7.27,3.65a6.82,6.82,0,0,0,6.82-10.23s6.07-5.32-6.51-5.32c0,0-2.66-.95,4.6-2.66,0,0,8.46-2.42,1.2-9.44,0,0,2.42-2.42,1.22-4.09L172,30.24s-2.89,9.92-9.68,10.23Z"/><path class="cls-1" d="M156.72,47.9,155,46.26s8.9-14.25,1.3-18.44c0,0-4.64-1.84-4.54,3,0,0-1.64,2.93-3.61-.17a6.82,6.82,0,0,1,10-6.82s5.18-6.13,5.45,6.45c0,0,1,2.62,2.56-4.67,0,0,2.25-8.53,9.41-1.4,0,0,2.39-2.49,4.09-1.3l-7.33,7.54s-9.88,3.1-10,9.88Z"/><path class="cls-1" d="M143.29,158.66s-9.45-4.37-11.87,2.18c0,0-3.41,7.74,3.17,9.68,0,0,1.2,9-5.31,9,0,0-8,.23-6.31-6.82,0,0,4.36-2.87,2.18-4.33a6.82,6.82,0,0,0-7.5,5.79,9.36,9.36,0,0,0,8.46,9.92s9.92,3.86,18.4-8.48a35.74,35.74,0,0,0,3.41-28.3,66.52,66.52,0,0,0-15.47-25.43s9.92,1.23,8.21-5.56c0,0,7.84.72,8.9-5.31,0,0,5.86-2.19,5.86,4.09a3.41,3.41,0,0,1-5.79,2.18s-4.13,2.9,1.94,4.6c0,0,8.46,1.94,8.46-8.45,0,0-.24-9-11.87-7,0,0-1.67-6.54-13.63,2.66,0,0-9-8.25-9.92,5.32,0,0-12.11-8-18.65-7.74l5.79,6S149.59,130.84,143.29,158.66Z"/><path class="cls-1" d="M158.56,142.94s-4.67-9.3,1.77-11.93c0,0,7.64-3.65,9.79,2.83,0,0,9,.92,8.76-5.62,0,0,0-8-6.82-6.07,0,0-2.73,4.46-4.26,2.32a6.81,6.81,0,0,1,5.52-7.67,9.34,9.34,0,0,1,10.23,8.14s4.19,9.79-7.84,18.65a35.86,35.86,0,0,1-28.2,4.3,66.58,66.58,0,0,1-25.9-14.63s1.53,9.85-5.32,8.39c0,0,1,7.84-5,9.06,0,0-2,5.94,4.29,5.73a3.41,3.41,0,0,0,1.91-6s2.8-4.23,4.67,1.77c0,0,2.22,8.42-8.18,8.77,0,0-9,0-7.4-11.63,0,0-6.61-1.5,2.18-13.87,0,0-8.48-8.7,5-10.23,0,0-8.39-11.83-8.36-18.37l6.24,5.59S131.12,150,158.56,142.94Z"/><path class="cls-1" d="M158.05,155.52l-1.67,1.71s9.17,14,1.67,18.37c0,0-4.6,1.94-4.6-2.9,0,0-1.67-2.9-3.62.24a6.83,6.83,0,0,0,10.23,6.82s5.15,6,5.15-6.58c0,0,1-2.66,2.66,4.6,0,0,2.42,8.49,9.44,1.23,0,0,2.42,2.42,4.12,1.19l-7.5-7.5S164,169.8,163.71,163Z"/><path class="cls-1" d="M156.34,157.26l1.67-1.7s14.22,8.89,18.41,1.29c0,0,1.84-4.64-3-4.53,0,0-2.93-1.64,0-3.65a6.81,6.81,0,0,1,7,10s6.17,5.22-6.41,5.46c0,0-2.66,1,4.64,2.59,0,0,8.52,2.21,1.43,9.41,0,0,2.45,2.35,1.3,4.09l-7.67-7.37s-3.11-9.85-9.89-10Z"/><path class="cls-1" d="M45.89,143.59s4.37-9.44-2.18-11.86c0,0-7.74-3.41-9.68,3.17,0,0-9,1.19-9-5.32,0,0-.23-8,6.82-6.31,0,0,2.87,4.37,4.33,2.18a6.82,6.82,0,0,0-5.79-7.5,9.38,9.38,0,0,0-9.92,8.46s-3.86,9.92,8.48,18.41a35.82,35.82,0,0,0,28.3,3.41,66.54,66.54,0,0,0,25.43-15.51s-1.23,9.92,5.56,8.21c0,0-.72,7.84,5.31,8.9,0,0,2.19,5.86-4.09,5.86a3.41,3.41,0,0,1-2.18-5.79s-2.9-4.13-4.6,1.94c0,0-1.94,8.45,8.45,8.45,0,0,9-.23,7-11.86,0,0,6.54-1.67-2.66-13.64,0,0,8.25-9-5.32-9.92,0,0,8-12.1,7.74-18.64l-6,5.79S73.74,149.76,45.89,143.59Z"/><path class="cls-1" d="M61.78,158.86s9.31-4.67,11.93,1.77c0,0,3.65,7.64-2.83,9.79,0,0-.92,9,5.63,8.79,0,0,8,0,6.06-6.81,0,0-4.46-2.73-2.31-4.27a6.83,6.83,0,0,1,7.67,5.49,9.35,9.35,0,0,1-8.15,10.23S70,188,61.13,176a35.79,35.79,0,0,1-4.29-28.19,66.4,66.4,0,0,1,14.62-25.91s-9.85,1.53-8.39-5.32c0,0-7.84,1-9.06-5,0,0-5.94-2-5.73,4.29a3.4,3.4,0,0,0,5.86,2s4.23,2.8-1.77,4.67c0,0-8.42,2.22-8.76-8.18,0,0,0-9,11.62-7.4,0,0,1.5-6.61,13.88,2.22,0,0,8.69-8.52,10.22,5,0,0,11.87-8.39,18.38-8.36L92.12,112S54.59,131.25,61.78,158.86Z"/><path class="cls-1" d="M49.06,158.35l-1.7-1.67s-14,9.2-18.38,1.67c0,0-1.94-4.57,2.9-4.57,0,0,2.9-1.7-.24-3.64a6.81,6.81,0,0,0-6.81,10.22s-6,5.32,6.54,5.32c0,0,2.66,1-4.6,2.66,0,0-8.49,2.42-1.23,9.44,0,0-2.42,2.42-1.19,4.13l7.5-7.5s2.9-9.92,9.68-10.23Z"/><path class="cls-1" d="M47.32,156.58l1.74,1.67s-8.93,14.21-1.33,18.41c0,0,4.64,1.84,4.54-3,0,0,1.63-2.93,3.65.17a6.82,6.82,0,0,1-6,7.59,6.89,6.89,0,0,1-4.08-.77s-5.21,6.17-5.45-6.41c0,0-1-2.66-2.59,4.63,0,0-2.22,8.53-9.41,1.43,0,0-2.35,2.46-4.09,1.3l7.36-7.67s9.85-3.1,10-9.89Z"/><path class="cls-1" d="M9.59,215.19H4l-.38.94a9.54,9.54,0,0,0-.85,2.65,1.2,1.2,0,0,0,.45,1,1.86,1.86,0,0,0,1.16.34v.51H0v-.51a2.31,2.31,0,0,0,1.45-.69,8.28,8.28,0,0,0,1.14-2.26,10.6,10.6,0,0,1,.52-1.26L7.42,205.7h.43l4.93,11.73.68,1.55a2.06,2.06,0,0,0,.61.82,2.3,2.3,0,0,0,1.16.37v.51H9.43v-.51a4.39,4.39,0,0,0,1.44-.15.63.63,0,0,0,.38-.63,6.75,6.75,0,0,0-.5-1.43Zm-.18-.49-2.62-6.3-2.6,6.3Z"/><path class="cls-1" d="M27.16,220.93,18,208.77v9a6.67,6.67,0,0,0,.11,1.48,1.29,1.29,0,0,0,.63.65,3.19,3.19,0,0,0,1.55.3v.44H15.43v-.44a3.61,3.61,0,0,0,1.41-.34,1.15,1.15,0,0,0,.58-.59,7.56,7.56,0,0,0,.09-1.5v-6.88a8.94,8.94,0,0,0-.14-2,.91.91,0,0,0-.44-.65,3.57,3.57,0,0,0-1.34-.14v-.4h3.83l7.68,10.15v-7.76a2.94,2.94,0,0,0-.17-1.21,1.24,1.24,0,0,0-.73-.54,3.63,3.63,0,0,0-1.31-.2v-.44h4.7v.44a3.39,3.39,0,0,0-1.29.31,1.19,1.19,0,0,0-.61.6,3.89,3.89,0,0,0-.13,1.18V221Z"/><path class="cls-1" d="M30.73,210.78h-.44l.07-3.12H43l.06,3.12h-.43a5.14,5.14,0,0,0-.6-1.86,1.56,1.56,0,0,0-.83-.69,5.82,5.82,0,0,0-1.5-.13H37.59v9.16a16.71,16.71,0,0,0,.07,2A1,1,0,0,0,38,220a2.33,2.33,0,0,0,1.19.23h.63v.44H33.39v-.44h.67a2.21,2.21,0,0,0,1.16-.22,1,1,0,0,0,.41-.65,14.34,14.34,0,0,0,.09-2.07V208.1H33.79a7.88,7.88,0,0,0-1.68.12,1.51,1.51,0,0,0-.81.72A5.19,5.19,0,0,0,30.73,210.78Z"/><path class="cls-1" d="M43.59,214.06a6.16,6.16,0,0,1,2-4.82,7.13,7.13,0,0,1,5-1.82,7.35,7.35,0,0,1,5.07,1.8,6.2,6.2,0,0,1,2,4.91,6.45,6.45,0,0,1-2,4.88,7.9,7.9,0,0,1-10.2,0A6.48,6.48,0,0,1,43.59,214.06Zm2.19.07a7.46,7.46,0,0,0,1.25,4.7,4.51,4.51,0,0,0,3.75,1.57,4.24,4.24,0,0,0,3.46-1.57,9.25,9.25,0,0,0,0-9.32,4.9,4.9,0,0,0-6.92-.31l-.31.31a7.41,7.41,0,0,0-1.24,4.62Z"/><path class="cls-1" d="M70.77,220.93l-9.18-12.16v9a6.67,6.67,0,0,0,.11,1.48,1.37,1.37,0,0,0,.63.65,3.19,3.19,0,0,0,1.55.3v.44H59v-.44a3.61,3.61,0,0,0,1.41-.34,1.15,1.15,0,0,0,.58-.59,7.56,7.56,0,0,0,.09-1.5v-6.88a8.94,8.94,0,0,0-.14-2,.91.91,0,0,0-.44-.65,3.57,3.57,0,0,0-1.34-.14v-.4H63l7.68,10.15v-7.76a2.94,2.94,0,0,0-.17-1.21,1.24,1.24,0,0,0-.73-.54,3.63,3.63,0,0,0-1.31-.2v-.44h4.71v.44a3.39,3.39,0,0,0-1.29.31,1.19,1.19,0,0,0-.61.6,3.89,3.89,0,0,0-.13,1.18V221Z"/><path class="cls-1" d="M73.91,208.1v-.4h5.94v.44h-.26a3.31,3.31,0,0,0-1.25.15.85.85,0,0,0-.4.59,11.69,11.69,0,0,0-.1,2.05v6.37a16.71,16.71,0,0,0,.07,2,1,1,0,0,0,.38.71,2.14,2.14,0,0,0,1.19.23h.39v.44H73.93v-.44h.38a2.21,2.21,0,0,0,1.16-.22,1,1,0,0,0,.41-.65A15.92,15.92,0,0,0,76,217.3v-6.37a14.8,14.8,0,0,0-.08-2,.84.84,0,0,0-.39-.62,3,3,0,0,0-1.28-.17Z"/><path class="cls-1" d="M81.35,214.06a6.16,6.16,0,0,1,2-4.82,7.13,7.13,0,0,1,5-1.82,7.35,7.35,0,0,1,5.07,1.8,6.2,6.2,0,0,1,2,4.91,6.48,6.48,0,0,1-2,4.88,7.9,7.9,0,0,1-10.2,0A6.49,6.49,0,0,1,81.35,214.06Zm2.19.07a7.46,7.46,0,0,0,1.25,4.7,4.51,4.51,0,0,0,3.8,1.57,4.24,4.24,0,0,0,3.46-1.57,9.18,9.18,0,0,0,0-9.32,4.9,4.9,0,0,0-6.92-.31l-.31.31a7.35,7.35,0,0,0-1.25,4.62Z"/><path class="cls-1" d="M113.47,205.87l.12,3.68h-.51a4.58,4.58,0,0,0-.68-2,2.27,2.27,0,0,0-1.1-1,6.73,6.73,0,0,0-2-.19h-2.89v6.26h1.38a2.51,2.51,0,0,0,1.78-.45,2.62,2.62,0,0,0,.45-1.82h.57v5.21h-.54a5.06,5.06,0,0,0-.19-1.5,1.3,1.3,0,0,0-.57-.75,3.5,3.5,0,0,0-1.47-.2h-1.38v3.67a17.39,17.39,0,0,0,.09,2.28,1.18,1.18,0,0,0,.44.8,2.41,2.41,0,0,0,1.37.26h.5v.51H102v-.51h.46a2.57,2.57,0,0,0,1.31-.23,1.1,1.1,0,0,0,.47-.75,15.48,15.48,0,0,0,.11-2.36v-7.24a14.51,14.51,0,0,0-.11-2.28,1,1,0,0,0-.43-.71,3.47,3.47,0,0,0-1.46-.19h-.26v-.5Z"/><path class="cls-1" d="M114.2,208.1v-.4h5.93v.44h-.27a3.36,3.36,0,0,0-1.26.15.86.86,0,0,0-.39.59,11.69,11.69,0,0,0-.1,2.05v6.37a16.71,16.71,0,0,0,.07,2,1,1,0,0,0,.38.71,2.14,2.14,0,0,0,1.19.23h.38v.44H114.2v-.44h.39a2.21,2.21,0,0,0,1.16-.22.93.93,0,0,0,.4-.65,14.34,14.34,0,0,0,.09-2.07v-6.37a13.33,13.33,0,0,0-.09-2,.78.78,0,0,0-.38-.62,3,3,0,0,0-1.28-.17Z"/><path class="cls-1" d="M129.68,215.09h5.6v.46a2.85,2.85,0,0,0-1.26.19.91.91,0,0,0-.44.62,12.38,12.38,0,0,0-.1,2.11v1.38h-.41a5.9,5.9,0,0,0-1.94.45,8.78,8.78,0,0,1-3,.62,6.38,6.38,0,0,1-4.64-1.84,6.27,6.27,0,0,1-1.84-4.65,7.33,7.33,0,0,1,1.76-4.88,5.92,5.92,0,0,1,4.78-2.09,5.52,5.52,0,0,1,4.31,1.91,4.48,4.48,0,0,0,.4-1.44h.46v4.33h-.46a5.17,5.17,0,0,0-1.51-3.17,4.44,4.44,0,0,0-6.19.2q-1.36,1.35-1.36,4.82c0,2.3.44,3.94,1.31,4.9a4.26,4.26,0,0,0,3.26,1.44,4.16,4.16,0,0,0,1.8-.41,2.32,2.32,0,0,0,1.12-1,3.29,3.29,0,0,0,.29-1.48,4.33,4.33,0,0,0-.14-1.39.78.78,0,0,0-.42-.47,3.15,3.15,0,0,0-1.06-.12h-.3Z"/><path class="cls-1" d="M146.1,207.7h4.34v.44a2.35,2.35,0,0,0-1.29.38,1.32,1.32,0,0,0-.52.75,8.44,8.44,0,0,0-.1,1.59v4.32a16.89,16.89,0,0,1-.12,2.46,3.46,3.46,0,0,1-.75,1.58,4.16,4.16,0,0,1-1.74,1.24,6.89,6.89,0,0,1-2.58.46,6.62,6.62,0,0,1-2.94-.59,3.73,3.73,0,0,1-1.71-1.53,5.16,5.16,0,0,1-.51-2.5v-5.37a13.33,13.33,0,0,0-.09-2,.84.84,0,0,0-.39-.62,2.9,2.9,0,0,0-1.27-.17h-.3v-.44h5.92v.44h-.25a3.36,3.36,0,0,0-1.26.15.85.85,0,0,0-.4.59,12.74,12.74,0,0,0-.1,2.05V215a15.87,15.87,0,0,0,.2,3,2.64,2.64,0,0,0,1.11,1.56,4.06,4.06,0,0,0,2.42.66,5.19,5.19,0,0,0,2.16-.44,3.57,3.57,0,0,0,1.44-1.11,3.1,3.1,0,0,0,.58-1.37,16.51,16.51,0,0,0,.11-2.22v-4.4a6.63,6.63,0,0,0-.13-1.54,1.2,1.2,0,0,0-.53-.7,2.84,2.84,0,0,0-1.31-.31Z"/><path class="cls-1" d="M162.05,216.6h.46l-.28,4H151.48v-.44h.27a2,2,0,0,0,1.25-.26,1.17,1.17,0,0,0,.36-.66,14.87,14.87,0,0,0,.08-2v-6.37a12.73,12.73,0,0,0-.09-2,.91.91,0,0,0-.37-.66,2.58,2.58,0,0,0-1.23-.18v-.38H161l.3,3.23h-.45a5,5,0,0,0-.75-1.93,1.87,1.87,0,0,0-1.06-.72,10.3,10.3,0,0,0-2-.14h-1.8v5.44h1.38a3.74,3.74,0,0,0,1.33-.16.85.85,0,0,0,.49-.49,4.67,4.67,0,0,0,.12-1.29H159v4.44h-.45a4,4,0,0,0-.18-1.45.9.9,0,0,0-.53-.48,4.26,4.26,0,0,0-1.18-.11h-1.43v3.08a6.56,6.56,0,0,0,.3,2.71c.2.27.73.41,1.6.41h1a4.41,4.41,0,0,0,1.69-.27,3.07,3.07,0,0,0,1.26-1.08A6.36,6.36,0,0,0,162.05,216.6Z"/><path class="cls-1" d="M177.37,220.64h-3.5a16,16,0,0,1-2.84-3.41c-.41-.59-.83-1.15-1.27-1.69a7.21,7.21,0,0,0-.91-1,1.42,1.42,0,0,0-.78-.17h-.48v2.88a14.87,14.87,0,0,0,.08,2,1,1,0,0,0,.38.71,2.14,2.14,0,0,0,1.19.23h.62v.44h-6.27v-.44H164a2.21,2.21,0,0,0,1.16-.22,1,1,0,0,0,.4-.65,14.34,14.34,0,0,0,.09-2.07v-6.37a13.33,13.33,0,0,0-.09-2,.88.88,0,0,0-.38-.62,3,3,0,0,0-1.28-.17h-.22v-.39l1.85-.1c1.24-.06,2.22-.09,3-.09a10.85,10.85,0,0,1,3,.35,3.93,3.93,0,0,1,1.88,1.13,2.71,2.71,0,0,1,.72,1.87,2.9,2.9,0,0,1-.94,2.18,4.73,4.73,0,0,1-2.75,1.12A10.4,10.4,0,0,1,173,217a12.44,12.44,0,0,0,2.32,2.59,3.49,3.49,0,0,0,2,.66Zm-9.82-6.7,1.49-.06a6,6,0,0,0,1.33-.21,2.28,2.28,0,0,0,.91-.51,2.12,2.12,0,0,0,.55-.86A3.68,3.68,0,0,0,172,211a3.31,3.31,0,0,0-.68-2.19c-.46-.55-1.45-.83-3-.83h-.82Z"/><path class="cls-1" d="M176.78,214.06a6.16,6.16,0,0,1,2-4.82,7.13,7.13,0,0,1,5-1.82,7.35,7.35,0,0,1,5.07,1.8,6.25,6.25,0,0,1,2,4.91A6.48,6.48,0,0,1,188.9,219a7.9,7.9,0,0,1-10.2,0A6.49,6.49,0,0,1,176.78,214.06Zm2.19.07a7.46,7.46,0,0,0,1.25,4.7A4.54,4.54,0,0,0,184,220.4a4.27,4.27,0,0,0,3.47-1.57,7.34,7.34,0,0,0,1.27-4.68,7.43,7.43,0,0,0-1.25-4.64,4.92,4.92,0,0,0-7-.29l-.29.29a7.35,7.35,0,0,0-1.25,4.62Z"/><path class="cls-1" d="M199.27,215.85h-4.93l-.34.82a8.4,8.4,0,0,0-.74,2.34,1,1,0,0,0,.39.88,1.63,1.63,0,0,0,1,.31v.44H190.8v-.44a2.14,2.14,0,0,0,1.28-.61,7.5,7.5,0,0,0,1-2,11.68,11.68,0,0,1,.46-1.11l3.77-9h.38L202,217.79l.6,1.36a1.71,1.71,0,0,0,.54.73,2,2,0,0,0,1,.33v.44h-5.11v-.44a3.88,3.88,0,0,0,1.27-.14.55.55,0,0,0,.33-.55,5.09,5.09,0,0,0-.44-1.26Zm-.17-.43-2.29-5.53-2.29,5.53Z"/><path class="cls-1" d="M18.44,234.12h.31l-.19,2.69H11.4v-.3h.19a1.3,1.3,0,0,0,.84-.17.83.83,0,0,0,.23-.43,7.63,7.63,0,0,0,.06-1.35v-4.24a9.36,9.36,0,0,0-.06-1.3.62.62,0,0,0-.25-.44,1.77,1.77,0,0,0-.82-.12v-.3h6.18l.2,2.16h-.3a3.19,3.19,0,0,0-.5-1.29,1.22,1.22,0,0,0-.7-.48,7.15,7.15,0,0,0-1.31-.09H14v3.62h.92a2.62,2.62,0,0,0,.88-.1.59.59,0,0,0,.33-.33,3.1,3.1,0,0,0,.08-.86h.3v3h-.3a2.42,2.42,0,0,0-.12-1,.58.58,0,0,0-.35-.32,3,3,0,0,0-.79-.07h-1v2a4.23,4.23,0,0,0,.2,1.8c.13.18.48.27,1.06.27h.64a3.1,3.1,0,0,0,1.13-.17,2,2,0,0,0,.83-.72A4.19,4.19,0,0,0,18.44,234.12Z"/><path class="cls-1" d="M25.69,234.24h.22v2.4h-.22a1.74,1.74,0,0,0-.33-.73,3,3,0,0,1-2.31,1,3.23,3.23,0,0,1-3.37-3.42,4.35,4.35,0,0,1,.44-1.91,3,3,0,0,1,1.21-1.34,3.4,3.4,0,0,1,1.71-.43,2.93,2.93,0,0,1,1.39.32,2.78,2.78,0,0,1,.93.7,2.54,2.54,0,0,0,.26-.89h.22l.07,2.59h-.22a2.93,2.93,0,0,0-.93-1.92,2.46,2.46,0,0,0-1.58-.54,2,2,0,0,0-1.71.87,4.16,4.16,0,0,0-.63,2.5,3.57,3.57,0,0,0,.69,2.36,2.17,2.17,0,0,0,1.72.83,2.76,2.76,0,0,0,1.13-.27,2,2,0,0,0,.91-.91A3.26,3.26,0,0,0,25.69,234.24Z"/><path class="cls-1" d="M27.18,236.7v-2.21h.26c.28,1.44,1,2.16,2,2.16a1.46,1.46,0,0,0,1.12-.42,1.28,1.28,0,0,0,.4-.92,1.17,1.17,0,0,0-.35-.86,4.27,4.27,0,0,0-1.27-.74,9.69,9.69,0,0,1-1.25-.62,2,2,0,0,1-.65-.69,1.76,1.76,0,0,1-.24-.9,1.6,1.6,0,0,1,.51-1.22,1.77,1.77,0,0,1,1.29-.49,2.52,2.52,0,0,1,.82.14,2,2,0,0,1,.78.59,1.13,1.13,0,0,0,.27-.6h.22v1.79h-.22a2.42,2.42,0,0,0-.68-1.23,1.63,1.63,0,0,0-1.13-.45,1.13,1.13,0,0,0-.9.33,1.09,1.09,0,0,0,.07,1.53,5.21,5.21,0,0,0,1.36.81c.59.27,1,.48,1.29.64a1.76,1.76,0,0,1,.64.66,1.93,1.93,0,0,1,.25,1,1.88,1.88,0,0,1-.59,1.43,2.19,2.19,0,0,1-1.57.55,2.39,2.39,0,0,1-1.88-.86,1.59,1.59,0,0,0-.24.67Z"/><path class="cls-1" d="M32.69,231.6h-.24V230H39.1v1.64h-.21a2.73,2.73,0,0,0-.32-1,.84.84,0,0,0-.44-.37,3,3,0,0,0-.79-.07h-1.1V235a9.37,9.37,0,0,0,0,1.06.49.49,0,0,0,.2.37,1.14,1.14,0,0,0,.63.13h.33v.23H34v-.23h.35a1.08,1.08,0,0,0,.61-.12.57.57,0,0,0,.22-.34,10.09,10.09,0,0,0,0-1.1v-4.83h-1a4.39,4.39,0,0,0-.89.06.77.77,0,0,0-.43.38A2.83,2.83,0,0,0,32.69,231.6Z"/><path class="cls-1" d="M43,234.28h-2.6l-.18.44a4.41,4.41,0,0,0-.39,1.23.58.58,0,0,0,.21.47.83.83,0,0,0,.53.16v.23h-2v-.23a1.07,1.07,0,0,0,.67-.33,3.49,3.49,0,0,0,.54-1.05l.24-.59,2-4.75h.2l2.29,5.44.31.72a.9.9,0,0,0,.29.38,1.16,1.16,0,0,0,.54.18v.23H43v-.23a1.9,1.9,0,0,0,.67-.08.28.28,0,0,0,.18-.29,2.61,2.61,0,0,0-.24-.66Zm-.09-.23-1.21-2.92-1.21,2.92Z"/><path class="cls-1" d="M46.15,236.7v-2.21h.25c.28,1.44,1,2.16,2,2.16a1.46,1.46,0,0,0,1.12-.42,1.28,1.28,0,0,0,.4-.92,1.17,1.17,0,0,0-.35-.86,4.27,4.27,0,0,0-1.27-.74,9.56,9.56,0,0,1-1.24-.62,2,2,0,0,1-.66-.69,1.8,1.8,0,0,1-.23-.9,1.64,1.64,0,0,1,.5-1.22,1.77,1.77,0,0,1,1.29-.49,2.52,2.52,0,0,1,.82.14,2.16,2.16,0,0,1,.79.59,1.2,1.2,0,0,0,.26-.6h.22v1.79h-.22a2.42,2.42,0,0,0-.68-1.23A1.59,1.59,0,0,0,48,230a1.13,1.13,0,0,0-.9.33,1.07,1.07,0,0,0-.28.72,1.09,1.09,0,0,0,.36.81,4.8,4.8,0,0,0,1.28.74c.59.27,1,.48,1.28.64a1.87,1.87,0,0,1,.65.66,2,2,0,0,1,.24,1,1.88,1.88,0,0,1-.59,1.43,2.19,2.19,0,0,1-1.56.55,2.35,2.35,0,0,1-1.88-.86,1.6,1.6,0,0,0-.25.67Z"/><path class="cls-1" d="M55.05,233.81l1.35-2.27a2,2,0,0,0,.33-.79.49.49,0,0,0-.18-.38.84.84,0,0,0-.63-.18V230h2.24v.23a1.33,1.33,0,0,0-.75.34,6,6,0,0,0-.73,1l-1.54,2.56V235a7,7,0,0,0,.06,1.12.48.48,0,0,0,.23.34,1.76,1.76,0,0,0,.68.1v.23H53.19v-.23h.11a1.08,1.08,0,0,0,.61-.12.51.51,0,0,0,.21-.34,8.1,8.1,0,0,0,.05-1.1v-.84l-1.71-2.8a6.84,6.84,0,0,0-.69-1,.92.92,0,0,0-.62-.17V230h2.78v.23c-.52,0-.78.12-.78.35a1.48,1.48,0,0,0,.26.57Z"/><path class="cls-1" d="M61.28,233.34a3.27,3.27,0,0,1,1.06-2.55,3.81,3.81,0,0,1,2.65-1,3.88,3.88,0,0,1,2.67,1,3.27,3.27,0,0,1,1.08,2.59,3.45,3.45,0,0,1-1,2.58,4.21,4.21,0,0,1-5.39,0A3.48,3.48,0,0,1,61.28,233.34Zm1.16,0a4,4,0,0,0,.66,2.48,2.38,2.38,0,0,0,2,.83,2.22,2.22,0,0,0,1.83-.83,3.81,3.81,0,0,0,.67-2.47,4,4,0,0,0-.66-2.45,2.58,2.58,0,0,0-3.81,0,4,4,0,0,0-.69,2.49Z"/><path class="cls-1" d="M74.88,230l.05,1.7h-.24a2,2,0,0,0-.31-.92,1.06,1.06,0,0,0-.52-.46,3.4,3.4,0,0,0-.9-.09H71.59v2.9h.64a1.22,1.22,0,0,0,.83-.21,1.2,1.2,0,0,0,.2-.84h.33v2.42h-.26a2.35,2.35,0,0,0-.08-.7.59.59,0,0,0-.27-.35,1.58,1.58,0,0,0-.68-.09h-.71V235a9.37,9.37,0,0,0,0,1.06.54.54,0,0,0,.21.37,1.14,1.14,0,0,0,.63.13h.23v.23H69.59v-.23h.21a1.08,1.08,0,0,0,.61-.12.49.49,0,0,0,.22-.34,8.1,8.1,0,0,0,.05-1.1V231.7a7.38,7.38,0,0,0-.05-1,.48.48,0,0,0-.2-.33,1.58,1.58,0,0,0-.68-.09h-.16V230Z"/><path class="cls-1" d="M84.65,228.16l.07,2.16h-.3a2.68,2.68,0,0,0-.4-1.17,1.41,1.41,0,0,0-.65-.58,4,4,0,0,0-1.14-.11H80.59v3.66h.81a1.54,1.54,0,0,0,1-.26,1.59,1.59,0,0,0,.26-1.06H83v3h-.32a2.85,2.85,0,0,0-.11-.87.77.77,0,0,0-.33-.44,2.09,2.09,0,0,0-.86-.12h-.77v2.15a11.83,11.83,0,0,0,0,1.33.74.74,0,0,0,.26.47,1.47,1.47,0,0,0,.8.15H82v.3H78v-.3h.26a1.47,1.47,0,0,0,.77-.14.66.66,0,0,0,.28-.43,10.62,10.62,0,0,0,.06-1.38v-4.24A9.79,9.79,0,0,0,79.3,229a.61.61,0,0,0-.26-.42,1.89,1.89,0,0,0-.85-.11H78v-.3Z"/><path class="cls-1" d="M89.24,234.28h-2.6l-.18.44a4.41,4.41,0,0,0-.39,1.23.58.58,0,0,0,.21.47.92.92,0,0,0,.53.16v.23h-2v-.23a1.15,1.15,0,0,0,.68-.33A3.84,3.84,0,0,0,86,235.2l.24-.59,2-4.75h.2l2.29,5.44.31.72a.9.9,0,0,0,.29.38,1.16,1.16,0,0,0,.54.18v.23h-2.7v-.23a1.9,1.9,0,0,0,.67-.08.28.28,0,0,0,.18-.29,3,3,0,0,0-.23-.66Zm-.09-.23-1.21-2.92-1.21,2.92Z"/><path class="cls-1" d="M92.38,236.7v-2.21h.21c.29,1.44,1,2.16,2,2.16a1.5,1.5,0,0,0,1.12-.42,1.27,1.27,0,0,0,.39-.92,1.15,1.15,0,0,0-.35-.86,4.27,4.27,0,0,0-1.27-.74,9.56,9.56,0,0,1-1.24-.62,2,2,0,0,1-.66-.69,1.91,1.91,0,0,1-.23-.9,1.6,1.6,0,0,1,.51-1.22,1.73,1.73,0,0,1,1.28-.49,2.52,2.52,0,0,1,.82.14,2,2,0,0,1,.79.59,1.2,1.2,0,0,0,.26-.6h.22v1.79H96a2.42,2.42,0,0,0-.68-1.23A1.59,1.59,0,0,0,94.2,230a1.1,1.1,0,0,0-.89.33,1.13,1.13,0,0,0-.29.72,1.09,1.09,0,0,0,.36.81,4.8,4.8,0,0,0,1.28.74c.59.27,1,.48,1.28.64a1.87,1.87,0,0,1,.65.66,2,2,0,0,1,.24,1,1.88,1.88,0,0,1-.59,1.43,2.19,2.19,0,0,1-1.56.55,2.35,2.35,0,0,1-1.88-.86,1.6,1.6,0,0,0-.25.67Z"/><path class="cls-1" d="M103.32,233.37H99.74V235a9.37,9.37,0,0,0,0,1.06.54.54,0,0,0,.21.37,1.12,1.12,0,0,0,.62.13h.18v.23H97.67v-.23h.17a1.08,1.08,0,0,0,.61-.12.49.49,0,0,0,.22-.34,6.73,6.73,0,0,0,0-1.1V231.7a6.14,6.14,0,0,0,0-1,.48.48,0,0,0-.2-.33,1.58,1.58,0,0,0-.68-.09h-.12V230h3.08v.23h-.13a1.6,1.6,0,0,0-.65.08.43.43,0,0,0-.21.31,6.52,6.52,0,0,0-.06,1.08v1.36h3.58V231.7a9.2,9.2,0,0,0,0-1,.48.48,0,0,0-.2-.33,1.58,1.58,0,0,0-.68-.09h-.18V230h3.12v.23h-.1a1.69,1.69,0,0,0-.67.08.49.49,0,0,0-.21.31,7.81,7.81,0,0,0,0,1.08v3.36a9.37,9.37,0,0,0,0,1.06.49.49,0,0,0,.2.37,1.14,1.14,0,0,0,.63.13h.16v.23h-3.12v-.23h.24a1,1,0,0,0,.6-.12.49.49,0,0,0,.22-.34,10.09,10.09,0,0,0,0-1.1Z"/><path class="cls-1" d="M106,230.19V230h3.14v.23h-.15a1.64,1.64,0,0,0-.66.08.43.43,0,0,0-.21.31,6.52,6.52,0,0,0-.06,1.08V235a9.37,9.37,0,0,0,0,1.06.59.59,0,0,0,.2.37,1.14,1.14,0,0,0,.63.13h.21v.23h-3.14v-.23h.21a1,1,0,0,0,.6-.12.49.49,0,0,0,.22-.34,10.09,10.09,0,0,0,0-1.1V231.7a9.2,9.2,0,0,0,0-1,.48.48,0,0,0-.2-.33,1.58,1.58,0,0,0-.68-.09Z"/><path class="cls-1" d="M109.88,233.34a3.27,3.27,0,0,1,1.06-2.55,3.81,3.81,0,0,1,2.65-1,3.88,3.88,0,0,1,2.67,1,3.27,3.27,0,0,1,1.08,2.59,3.45,3.45,0,0,1-1,2.58,4.17,4.17,0,0,1-5.38,0A3.42,3.42,0,0,1,109.88,233.34Zm1.16,0a4,4,0,0,0,.66,2.48,2.38,2.38,0,0,0,2,.83,2.22,2.22,0,0,0,1.83-.83,3.81,3.81,0,0,0,.67-2.47,4,4,0,0,0-.66-2.45,2.58,2.58,0,0,0-3.64-.17l-.17.17a3.93,3.93,0,0,0-.69,2.47Z"/><path class="cls-1" d="M124.23,237l-4.84-6.42v4.76a3.29,3.29,0,0,0,.06.77.66.66,0,0,0,.33.35,1.79,1.79,0,0,0,.82.16v.23H118v-.23a2,2,0,0,0,.75-.18.57.57,0,0,0,.3-.31,4.2,4.2,0,0,0,0-.79v-3.6a4.64,4.64,0,0,0-.07-1,.56.56,0,0,0-.23-.35,2.12,2.12,0,0,0-.71-.07V230h2l4.05,5.36v-4.1a1.71,1.71,0,0,0-.09-.64.69.69,0,0,0-.38-.29,2,2,0,0,0-.69-.1V230h2.48v.23a1.59,1.59,0,0,0-.68.17.57.57,0,0,0-.32.31,1.85,1.85,0,0,0-.07.62V237Z"/><path class="cls-1" d="M132.67,232.7h2.16v.23a1.83,1.83,0,0,0-.72.4,2.91,2.91,0,0,0-.62,1.06,4.71,4.71,0,0,1-.51,1,4.51,4.51,0,0,0,.85,1,1.18,1.18,0,0,0,.66.21.81.81,0,0,0,.73-.45h.24a1.17,1.17,0,0,1-.46.67,1.27,1.27,0,0,1-.8.25,2.14,2.14,0,0,1-1.73-1,2.55,2.55,0,0,1-1.88,1,1.94,1.94,0,0,1-.71-.13,2.07,2.07,0,0,1-.62-.38,2.16,2.16,0,0,1-.44-.6,1.67,1.67,0,0,1-.15-.76,1.71,1.71,0,0,1,.34-1.07,6.34,6.34,0,0,1,1.33-1.09,2.54,2.54,0,0,1-.59-1.49,1.26,1.26,0,0,1,.4-.93,1.34,1.34,0,0,1,1-.42,1.63,1.63,0,0,1,1,.31,1,1,0,0,1,.44.81c0,.52-.48,1-1.45,1.51L132,234c.28.39.56.77.82,1.15a3.2,3.2,0,0,0,.46-.83,2.34,2.34,0,0,0,.17-.68c0-.38-.27-.61-.79-.67Zm-2.18.48a2.56,2.56,0,0,0-.81.76,1.46,1.46,0,0,0-.29.83,1.74,1.74,0,0,0,.5,1.18,1.5,1.5,0,0,0,1.13.55,1.76,1.76,0,0,0,1.3-.69c-.36-.55-.69-1-1-1.47s-.57-.85-.83-1.19Zm.5-.61c.68-.4,1-.82,1-1.28a1.15,1.15,0,0,0,0-.37.92.92,0,0,0-.17-.29.7.7,0,0,0-.26-.19,1,1,0,0,0-.33-.06.77.77,0,0,0-.59.24.89.89,0,0,0-.22.6,2.7,2.7,0,0,0,.57,1.32Z"/><path class="cls-1" d="M141,232.7v1.82a9.84,9.84,0,0,0,0,1.33.66.66,0,0,0,.26.47,1.53,1.53,0,0,0,.79.15h.28v.3h-4v-.3h.23a1.47,1.47,0,0,0,.77-.14.68.68,0,0,0,.27-.43,10.62,10.62,0,0,0,.06-1.38v-4.24a9.79,9.79,0,0,0-.06-1.33.6.6,0,0,0-.25-.42,2,2,0,0,0-.86-.11h-.16v-.3h3.09a7.93,7.93,0,0,1,2.06.21,2.36,2.36,0,0,1,1.18.75,2,2,0,0,1,.47,1.35,2.38,2.38,0,0,1-.32,1.25,2,2,0,0,1-.9.82,5.46,5.46,0,0,1-2.08.28Zm0-.32h.62a4,4,0,0,0,1.2-.15,1.45,1.45,0,0,0,.77-.63,2.23,2.23,0,0,0,.3-1.18,2.1,2.1,0,0,0-.52-1.57,2.41,2.41,0,0,0-1.71-.5H141Z"/><path class="cls-1" d="M151.53,234.79l-.06,2h-5.82v-.23h.21a1,1,0,0,0,.6-.12.49.49,0,0,0,.22-.34,6.73,6.73,0,0,0,0-1.1v-3.3a6.14,6.14,0,0,0,0-1,.48.48,0,0,0-.2-.33,1.52,1.52,0,0,0-.67-.09h-.16V230h3.29v.23h-.3a1.64,1.64,0,0,0-.66.08.43.43,0,0,0-.21.31,5.59,5.59,0,0,0-.05,1.08v3.59a4.82,4.82,0,0,0,0,.93.38.38,0,0,0,.22.29,1.85,1.85,0,0,0,.77.11h.52a2.94,2.94,0,0,0,.93-.12,1.26,1.26,0,0,0,.59-.48,4,4,0,0,0,.5-1.19Z"/><path class="cls-1" d="M157.52,234.7h.24l-.15,2.13h-5.67v-.23h.14a1.09,1.09,0,0,0,.66-.14.61.61,0,0,0,.19-.35,6.37,6.37,0,0,0,0-1.07V231.7a8.34,8.34,0,0,0,0-1,.47.47,0,0,0-.2-.34,1.31,1.31,0,0,0-.65-.1V230H157l.16,1.7h-.24a2.9,2.9,0,0,0-.39-1,1,1,0,0,0-.56-.38,4.18,4.18,0,0,0-1-.08H154v2.87h.72a2.35,2.35,0,0,0,.7-.08.49.49,0,0,0,.27-.26,2.57,2.57,0,0,0,.06-.68H156v2.34h-.24a1.77,1.77,0,0,0-.1-.76.45.45,0,0,0-.28-.26,3.21,3.21,0,0,0-.62,0H154v1.62a3.64,3.64,0,0,0,.15,1.43c.11.14.39.22.85.22h.51a2.48,2.48,0,0,0,.89-.14,1.61,1.61,0,0,0,.66-.58A3.27,3.27,0,0,0,157.52,234.7Z"/><path class="cls-1" d="M162.59,234.28H160l-.17.44a4.13,4.13,0,0,0-.4,1.23.58.58,0,0,0,.21.47,1,1,0,0,0,.54.16v.23h-2v-.23a1.1,1.1,0,0,0,.68-.33,3.49,3.49,0,0,0,.54-1.05,6.07,6.07,0,0,1,.24-.59l2-4.75h.2l2.29,5.44.31.72a1,1,0,0,0,.28.38,1.16,1.16,0,0,0,.54.18v.23h-2.69v-.23a2.16,2.16,0,0,0,.67-.08.27.27,0,0,0,.17-.29,3,3,0,0,0-.23-.66Zm-.09-.23-1.21-2.92-1.21,2.92Z"/><path class="cls-1" d="M165.68,236.7v-2.21h.26c.28,1.44,1,2.16,2,2.16a1.46,1.46,0,0,0,1.12-.42,1.28,1.28,0,0,0,.4-.92,1.17,1.17,0,0,0-.35-.86,4.27,4.27,0,0,0-1.27-.74,9.69,9.69,0,0,1-1.25-.62,2,2,0,0,1-.65-.69,1.76,1.76,0,0,1-.24-.9,1.6,1.6,0,0,1,.51-1.22,1.77,1.77,0,0,1,1.29-.49,2.52,2.52,0,0,1,.82.14,2.15,2.15,0,0,1,.78.59,1.13,1.13,0,0,0,.27-.6h.22v1.79h-.22a2.42,2.42,0,0,0-.68-1.23,1.63,1.63,0,0,0-1.13-.45,1.13,1.13,0,0,0-.9.33,1.07,1.07,0,0,0-.28.72,1,1,0,0,0,.35.81,5,5,0,0,0,1.28.74c.59.27,1,.48,1.29.64a1.76,1.76,0,0,1,.64.66,1.93,1.93,0,0,1,.25,1,1.88,1.88,0,0,1-.59,1.43,2.19,2.19,0,0,1-1.57.55,2.35,2.35,0,0,1-1.88-.86,1.59,1.59,0,0,0-.24.67Z"/><path class="cls-1" d="M176.16,230h2.29v.23a1.26,1.26,0,0,0-.68.2.7.7,0,0,0-.28.39,6,6,0,0,0,0,.85v2.28a8.1,8.1,0,0,1-.07,1.3,1.72,1.72,0,0,1-.39.83,2.31,2.31,0,0,1-.92.65,3.52,3.52,0,0,1-1.36.24,3.47,3.47,0,0,1-1.55-.31,2,2,0,0,1-.91-.8,2.75,2.75,0,0,1-.27-1.32v-2.8a7.38,7.38,0,0,0-.05-1,.48.48,0,0,0-.2-.33,1.58,1.58,0,0,0-.68-.09h-.15V230h3.12v.23h-.13a1.64,1.64,0,0,0-.66.08.43.43,0,0,0-.21.31,6.52,6.52,0,0,0-.06,1.08v2.16a7.74,7.74,0,0,0,.11,1.59,1.35,1.35,0,0,0,.58.82,2.1,2.1,0,0,0,1.28.36,2.65,2.65,0,0,0,1.14-.24,1.91,1.91,0,0,0,.76-.59,1.6,1.6,0,0,0,.31-.72,9.16,9.16,0,0,0,0-1.17v-2.33a3.73,3.73,0,0,0-.06-.82.65.65,0,0,0-.29-.36,1.35,1.35,0,0,0-.68-.17Z"/><path class="cls-1" d="M186.19,236.81h-1.84a8.35,8.35,0,0,1-1.5-1.8c-.22-.31-.44-.61-.68-.89a3,3,0,0,0-.48-.52.63.63,0,0,0-.4-.1H181V235a9.37,9.37,0,0,0,0,1.06.55.55,0,0,0,.2.37,1.14,1.14,0,0,0,.63.13h.33v.23h-3.28v-.23h.22a1.08,1.08,0,0,0,.61-.12.49.49,0,0,0,.22-.34,10.09,10.09,0,0,0,0-1.1V231.7a9.2,9.2,0,0,0,0-1,.42.42,0,0,0-.21-.33,1.52,1.52,0,0,0-.67-.09h-.12V230h1c.65,0,1.17-.05,1.56-.05a6.06,6.06,0,0,1,1.59.18,2.11,2.11,0,0,1,1,.6,1.38,1.38,0,0,1,.38,1,1.54,1.54,0,0,1-.49,1.15,2.59,2.59,0,0,1-1.46.59,5.2,5.2,0,0,1,1.39,1.49,6.62,6.62,0,0,0,1.22,1.37,1.89,1.89,0,0,0,1.05.35ZM181,233.27h.79a2.76,2.76,0,0,0,.7-.11,1.09,1.09,0,0,0,.48-.27,1.2,1.2,0,0,0,.29-.45,1.87,1.87,0,0,0,.11-.7,1.78,1.78,0,0,0-.36-1.16,2.06,2.06,0,0,0-1.58-.43,3.09,3.09,0,0,0-.43,0Z"/><path class="cls-1" d="M192.12,234.7h.24l-.15,2.13h-5.62v-.23h.14a1.09,1.09,0,0,0,.66-.14.61.61,0,0,0,.19-.35,6.37,6.37,0,0,0,0-1.07V231.7a8.34,8.34,0,0,0,0-1,.47.47,0,0,0-.2-.34,1.31,1.31,0,0,0-.65-.1V230h4.86l.16,1.7h-.24a2.9,2.9,0,0,0-.39-1,1,1,0,0,0-.56-.38,4.18,4.18,0,0,0-1-.08h-1v2.87h.72a2.35,2.35,0,0,0,.7-.08.49.49,0,0,0,.27-.26,2.57,2.57,0,0,0,.06-.68h.25v2.34h-.24a1.77,1.77,0,0,0-.1-.76.45.45,0,0,0-.28-.26,3.21,3.21,0,0,0-.62,0h-.76v1.62a3.64,3.64,0,0,0,.15,1.43c.11.14.39.22.85.22h.51a2.48,2.48,0,0,0,.89-.14,1.61,1.61,0,0,0,.66-.58A3.14,3.14,0,0,0,192.12,234.7Z"/></svg>