<?xml version="1.0" encoding="utf-8"?>
<!-- Generator: Adobe Illustrator 25.4.1, SVG Export Plug-In . SVG Version: 6.00 Build 0)  -->
<svg version="1.1" id="Capa_1" xmlns="http://www.w3.org/2000/svg" xmlns:xlink="http://www.w3.org/1999/xlink" x="0px" y="0px"
	 viewBox="0 0 383.7 138.3" style="enable-background:new 0 0 383.7 138.3;" xml:space="preserve">
<style type="text/css">
	.st0{fill:#CECECE;}
</style>
<g transform="translate(-103.829 -72.7)">
	<g transform="translate(386.627 104.956)">
		<path class="st0" d="M35.9,89.4V61.7c0-0.5,0.2-1.1,0.6-1.4l12.7-12.7c0.6-0.6,1.5-0.6,2.1,0L64,60.3c0.4,0.4,0.6,0.8,0.6,1.3
			v27.8h-6.8v15.2h43.3L62.5,0H38.6L0,104.6h43.1V89.4H35.9z"/>
	</g>
	<path class="st0" d="M441,150.5L441,150.5L441,150.5L441,150.5z"/>
	<rect x="427.7" y="171" class="st0" width="7.8" height="7.8"/>
	<rect x="438.2" y="171" class="st0" width="7.8" height="7.8"/>
	<rect x="438.2" y="181.4" class="st0" width="7.8" height="7.8"/>
	<rect x="427.7" y="181.4" class="st0" width="7.8" height="7.8"/>
	<g transform="translate(181.844 104.956)">
		<path class="st0" d="M43.3,89.2L30.7,76.7c-0.2-0.2-0.2-0.4-0.2-0.6l0-14.3v0c1.8-5.1,5.5-9.3,10.3-11.8c0.4-0.2,0.9-0.1,1.1,0.4
			c0.1,0.1,0.1,0.3,0.1,0.4v16.7c0,0.2,0.1,0.4,0.2,0.6l8.3,8.3l0,0l8.3-8.3c0.2-0.2,0.2-0.4,0.2-0.6V50.8c0-0.5,0.4-0.8,0.9-0.8
			c0.1,0,0.3,0,0.4,0.1c4.7,2.5,8.4,6.6,10.3,11.6c0,0.1,0.1,0.2,0.1,0.3V76c0,0.2-0.1,0.4-0.2,0.6L58.1,89
			c-0.2,0.2-0.2,0.4-0.2,0.6v15h43.1L62.5,0H38.6L0,104.6h43.3L43.3,89.2C43.3,89.2,43.3,89.2,43.3,89.2z"/>
	</g>
	<path class="st0" d="M367,195.2l-7.3-34.2l-16,14.5l-5.4-34.8l7,26.7l17.2-15.5L367,195.2z"/>
	<g transform="translate(290.422 104.956)">
		<path class="st0" d="M63.2,66.6L53,75.8c-0.7,0.6-1.7,0.5-2.2-0.1c-0.2-0.2-0.4-0.5-0.4-0.9l-6.1-50.3L26.6,0H0v104.6h26.6V46.3
			l35.7,58.3h14.6l-8.6-42L63.2,66.6z"/>
		<path class="st0" d="M87.3,0H60.2v46.7l-11.5-16L56,56L73.2,41c0.6-0.5,1.5-0.4,2,0.1c0.2,0.2,0.3,0.5,0.3,0.8l3.9,62.6h8L87.3,0z
			"/>
	</g>
	<g transform="translate(221.348 72.7)">
		<path class="st0" d="M18.4,3.6h-7.2v20h-4v-20H0V0.3h18.4V3.6z"/>
		<path class="st0" d="M30.2,23.5h-4V0.3h4V23.5z"/>
		<path class="st0" d="M53.2,13.2h-9.5v7.1h11.1v3.2H39.6V0.3h15.1v3.3h-11V10h9.5V13.2z"/>
		<path class="st0" d="M80.9,23.5h-4L66.6,7.1v16.5h-4V0.3h4l10.4,16.5V0.3h4V23.5z"/>
		<path class="st0" d="M90.2,23.5V0.3H97c1.9,0,3.8,0.4,5.5,1.4c1.6,0.9,2.9,2.3,3.7,3.9c0.9,1.8,1.3,3.8,1.3,5.8v1.2
			c0,2-0.4,4-1.3,5.8c-0.8,1.6-2.1,3-3.7,3.9c-1.7,0.9-3.6,1.4-5.6,1.4L90.2,23.5z M94.2,3.6v16.7h2.6c1.8,0.1,3.6-0.6,4.9-2
			c1.2-1.6,1.8-3.7,1.7-5.7v-1.3c0.1-2.1-0.4-4.1-1.6-5.8c-1.2-1.4-3-2.1-4.8-2L94.2,3.6z"/>
		<path class="st0" d="M128.6,18.1h-9l-1.9,5.4h-4.2l8.8-23.2h3.6l8.8,23.2h-4.2L128.6,18.1z M120.8,14.9h6.7l-3.4-9.6L120.8,14.9z"
			/>
		<path class="st0" d="M154,17.5c0-0.9-0.4-1.8-1.1-2.4c-1.2-0.8-2.5-1.3-3.9-1.7c-1.6-0.4-3.1-1.1-4.5-1.9c-1.9-1-3.1-3-3.2-5.2
			c0-1.8,0.8-3.5,2.3-4.6c1.7-1.3,3.8-1.9,5.9-1.8c1.5,0,3,0.3,4.3,0.9c1.2,0.6,2.2,1.4,3,2.5c0.7,1.1,1.1,2.4,1.1,3.7h-4
			c0.1-1.1-0.4-2.1-1.1-2.8c-0.9-0.7-2.1-1.1-3.3-1c-1.1-0.1-2.2,0.2-3.1,0.8c-0.7,0.6-1.1,1.4-1.1,2.4c0,0.9,0.5,1.7,1.2,2.1
			c1.2,0.8,2.5,1.3,3.9,1.7c1.5,0.4,3,1,4.4,1.8c1,0.6,1.8,1.4,2.4,2.4c0.5,1,0.8,2,0.8,3.1c0.1,1.8-0.8,3.5-2.2,4.6
			c-1.8,1.2-3.9,1.8-6,1.7c-1.6,0-3.2-0.3-4.6-0.9c-1.3-0.5-2.4-1.4-3.3-2.6c-0.8-1.1-1.2-2.5-1.2-3.8h4c-0.1,1.2,0.4,2.3,1.3,3.1
			c1.1,0.8,2.4,1.2,3.7,1.1c1.1,0.1,2.2-0.2,3.2-0.9C153.6,19.3,154,18.4,154,17.5z"/>
	</g>
	<g transform="translate(103.829 104.953)">
		<path class="st0" d="M47,0v58.3c0.6,0.5,1.2,1,1.8,1.5l-1.6,1.6c1.5,1.5,2.6,3.2,3.4,5.1l2.1-0.9c0.9,2.2,1.4,4.5,1.4,6.9v0h-2.3
			c0,2.1-0.4,4.1-1.2,6l2.1,0.9c-0.9,2.2-2.2,4.2-3.9,5.8l-1.6-1.6C45.7,85,44,86.2,42.1,87l0.9,2.1c-2.2,0.9-4.5,1.4-6.9,1.4v-2.3
			c-2.1,0-4.1-0.4-6-1.2l-0.9,2.1c-2.2-0.9-4.2-2.2-5.8-3.9l1.6-1.6c-1.5-1.5-2.6-3.2-3.4-5.1l-2.1,0.9c-0.8-2-1.3-4.2-1.3-6.4H0
			c0,10.5,3.2,18.7,9.5,24.4c6.3,5.7,15.2,8.6,26.6,8.6c6.4,0.1,12.8-1.4,18.5-4.3c5.4-2.7,9.9-6.9,12.9-12.1
			c3.1-5.4,4.7-11.6,4.6-17.8V0H47z"/>
	</g>
	<path class="st0" d="M149,177.5L149,177.5c0-1.2-0.2-2.4-0.7-3.5l-1.1,0.4c-0.4-1-1-1.8-1.7-2.6l0.8-0.8c-0.8-0.8-1.8-1.5-2.9-2
		l-0.4,1.1c-1-0.4-2-0.6-3-0.6v-1.1c-1.2,0-2.4,0.2-3.5,0.7l0.4,1.1c-1,0.4-1.8,1-2.6,1.7l-0.8-0.8l0,0c-0.8,0.8-1.5,1.8-2,2.9
		l1.1,0.4c-0.4,1-0.6,2-0.6,3l0,0h-1.1c0,1.2,0.2,2.4,0.7,3.5l1.1-0.4c0.4,1,1,1.8,1.7,2.6l-0.8,0.8c0.8,0.8,1.8,1.5,2.9,2l0.4-1.1
		c1,0.4,2,0.6,3,0.6v1.1c1.2,0,2.4-0.2,3.5-0.7l-0.4-1.1c1-0.4,1.8-1,2.6-1.7l0.8,0.8c0.8-0.8,1.5-1.8,2-2.9l-1.1-0.4
		c0.4-1,0.6-2,0.6-3L149,177.5z"/>
	<g transform="translate(214.831 160.134)">
		<path class="st0" d="M0,18.6L0,18.6L0,18.6z M34.1,19.5l-12.7,13v14h-7.8v-14l-1-1.1L0.7,19.4l0-12.6c1-2.6,2.7-4.9,4.8-6.8v11.8
			c0,1.1,0.4,2.2,1.2,3l10.8,10.7l10.8-10.7c0.8-0.8,1.2-1.9,1.2-3V0c2.1,1.9,3.7,4.2,4.8,6.8C34.2,11.8,34.1,17.3,34.1,19.5
			L34.1,19.5z M34.4,7.2L34.4,7.2L34.4,7.2z M34.9,18.7L34.9,18.7L34.9,18.7z"/>
	</g>
</g>
</svg>
