<svg xmlns="http://www.w3.org/2000/svg" viewBox="0 0 336.54 336.54"><defs><style>.cls-1{fill:#fffcfd;}</style></defs><g id="Capa_1" data-name="Capa 1"><path class="cls-1" d="M168.27,318.11c-82.68,0-149.94-67.26-149.94-149.93S85.59,18.24,168.27,18.24,318.21,85.5,318.21,168.18,250.94,318.11,168.27,318.11Zm0-282.87C95,35.24,35.33,94.88,35.33,168.18S95,301.11,168.27,301.11s132.94-59.63,132.94-132.93S241.57,35.24,168.27,35.24Z"/></g><g id="Capa_4" data-name="Capa 4"><path class="cls-1" d="M234.5,126.76A41.44,41.44,0,0,0,193.14,166v2.13c0,.43,0,.85,0,1.27v0a24.85,24.85,0,0,1-49.66-1v-.83A41.41,41.41,0,1,0,135.17,193a41.59,41.59,0,0,0,8.28,8.27,41.44,41.44,0,0,0,58-8.24,41.41,41.41,0,1,0,33.1-66.3ZM102,193a24.85,24.85,0,1,1,24.85-24.85A24.86,24.86,0,0,1,102,193Zm132.46,0a24.83,24.83,0,0,1-24.81-23.5c0-.45-.05-.9-.05-1.35s0-1.19.07-1.78A24.85,24.85,0,1,1,234.5,193Z"/></g></svg>