<svg xmlns="http://www.w3.org/2000/svg" viewBox="0 0 531.65 189.13"><defs><style>.cl-1{fill:#00283a;}</style></defs><g id="Capa_4" data-name="Capa 4"><path class="cl-1" d="M508,113.32a50.41,50.41,0,1,0-19.14,40.62c.57-.44,1.11-.9,1.66-1.37a10.13,10.13,0,0,0-13-15.41c-.43.39-.87.75-1.32,1.1a30.26,30.26,0,0,1-47.11-13.78H497c.3,0,.6,0,.9,0a10.11,10.11,0,0,0,10.06-9c0-.36,0-.72,0-1.08S508,113.68,508,113.32Zm-78.91-9a30.26,30.26,0,0,1,57.05,0Z"/><path class="cl-1" d="M397.1,33.74v121a10.08,10.08,0,0,1-20.16,0v-121a10.08,10.08,0,1,1,20.16,0Z"/><path class="cl-1" d="M366.86,33.75a10.08,10.08,0,1,0-20.16,0V74.07a50.4,50.4,0,0,0-80.58,37.73v2.67c0,.51,0,1,0,1.5a30.24,30.24,0,0,1-60.45-1.14v-1A50.39,50.39,0,0,0,115,84.18l0,0A50.39,50.39,0,0,0,44.37,74.08V33.75a10.08,10.08,0,1,0-20.16,0v121a10.08,10.08,0,1,0,20.16,0V114.4a30.25,30.25,0,0,1,60.48-.89c0,.3,0,.59,0,.89V116a50.4,50.4,0,0,0,90.7,28.73,50.43,50.43,0,0,0,80.65,0,50.4,50.4,0,0,0,70.49,10h0a50.42,50.42,0,0,0,20.16-40.32V110a3.76,3.76,0,0,1,0-.58,3.69,3.69,0,0,1,0-.58Zm-211.62,111A30.24,30.24,0,0,1,125,115.84c0-.45,0-.91,0-1.37s0-.64,0-1a30.24,30.24,0,1,1,30.23,31.22Zm161.22-.08a30.25,30.25,0,0,1-30.2-28.58,0,0,0,0,1,0,0c0-.54-.05-1.09-.05-1.63,0-.73,0-1.46.08-2.18a30.24,30.24,0,1,1,30.17,32.43Z"/></g></svg>